<svg id="Layer_1" data-name="Layer 1" xmlns="http://www.w3.org/2000/svg" viewBox="0 0 5274.83 500"><defs><style>.cls-1{fill:#fd5f80;}.cls-2{font-size:100px;fill:#fff;font-family:Roboto-Regular, Roboto;}.cls-3{letter-spacing:-0.01em;}.cls-4{letter-spacing:0.01em;}.cls-5{letter-spacing:-0.01em;}.cls-6{letter-spacing:-0.01em;}.cls-7{letter-spacing:-0.01em;}</style></defs><title>proj1strat</title><polygon class="cls-1" points="3397.76 -0.5 1738.91 -0.5 1878.28 246.5 1738.91 500.5 3397.76 500.5 3537.13 246.5 3397.76 -0.5"/><polygon class="cls-1" points="1659 -0.5 0.16 -0.5 0.16 500.5 1659 500.5 1798.37 246.5 1659 -0.5"/><polygon class="cls-1" points="5135.55 -0.5 3476.7 -0.5 3616.07 246.5 3476.7 500.5 5135.55 500.5 5274.92 246.5 5135.55 -0.5"/><text class="cls-2" transform="translate(312.25 283)"><tspan xml:space="preserve"> Int</tspan><tspan class="cls-3" x="139.79" y="0">r</tspan><tspan x="172.66" y="0">oduction </tspan><tspan class="cls-3" x="587.45" y="0">t</tspan><tspan x="619.14" y="0">o Okta PIM</tspan></text><text class="cls-2" transform="translate(2057.71 208.11)"><tspan xml:space="preserve"> Build Sur</tspan><tspan class="cls-3" x="420.12" y="0">r</tspan><tspan x="452.98" y="0">ounding Se</tspan><tspan class="cls-4" x="949.32" y="0">r</tspan><tspan x="984.03" y="0">vices</tspan><tspan x="317.63" y="120">and Platform</tspan></text><text class="cls-2" transform="translate(3869.9 204.11)"><tspan xml:space="preserve"> Switch </tspan><tspan class="cls-3" x="348.34" y="0">t</tspan><tspan x="380.03" y="0">o Self-S</tspan><tspan class="cls-5" x="720.02" y="0">o</tspan><tspan class="cls-6" x="776.32" y="0">v</tspan><tspan x="824.12" y="0">e</tspan><tspan class="cls-7" x="877.1" y="0">r</tspan><tspan x="910.01" y="0">eign </tspan><tspan x="233.57" y="120">Identity Model</tspan></text></svg>