<svg id="Layer_1" data-name="Layer 1" xmlns="http://www.w3.org/2000/svg" viewBox="0 0 5274.83 500"><defs><style>.cls-1{fill:#fd5f80;}.cls-2{fill:#fff;}</style></defs><title>proj1strat</title><polygon class="cls-1" points="3397.76 -0.5 1738.91 -0.5 1878.28 246.5 1738.91 500.5 3397.76 500.5 3537.13 246.5 3397.76 -0.5"/><polygon class="cls-1" points="1659 -0.5 0.16 -0.5 0.16 500.5 1659 500.5 1798.37 246.5 1659 -0.5"/><polygon class="cls-1" points="5135.55 -0.5 3476.7 -0.5 3616.07 246.5 3476.7 500.5 5135.55 500.5 5274.92 246.5 5135.55 -0.5"/><path class="cls-2" d="M355.32,283h-9.38V211.91h9.38Z"/><path class="cls-2" d="M379.58,230.17l.3,6.64a19.24,19.24,0,0,1,15.82-7.62q16.74,0,16.89,18.9V283h-9V248c0-3.81-.91-6.62-2.61-8.45s-4.37-2.73-8-2.73a13,13,0,0,0-7.71,2.34,15.86,15.86,0,0,0-5.18,6.15V283h-9V230.17Z"/><path class="cls-2" d="M438.47,217.38v12.79h9.86v7h-9.86V270a7.32,7.32,0,0,0,1.32,4.76c.88,1.06,2.37,1.59,4.49,1.59a21.34,21.34,0,0,0,4.3-.59V283a26.68,26.68,0,0,1-6.94,1q-6,0-9.13-3.67t-3.07-10.4V237.15h-9.62v-7h9.62V217.38Z"/><path class="cls-2" d="M484.42,238.27a28,28,0,0,0-4.45-.34q-8.88,0-12.06,7.57V283h-9V230.17h8.79l.15,6.1a14.06,14.06,0,0,1,12.59-7.08,9.17,9.17,0,0,1,4,.69Z"/><path class="cls-2" d="M489.35,256.1a31.29,31.29,0,0,1,3-14,22.79,22.79,0,0,1,8.5-9.57,23.08,23.08,0,0,1,12.42-3.37q10.8,0,17.46,7.47t6.66,19.88v.63a31.45,31.45,0,0,1-3,13.84,22.38,22.38,0,0,1-8.45,9.55A23.38,23.38,0,0,1,513.42,284q-10.74,0-17.41-7.47t-6.66-19.78Zm9.08,1.07q0,8.79,4.08,14.11a13.82,13.82,0,0,0,21.85-.07q4-5.4,4-15.11,0-8.7-4.12-14.09a13.14,13.14,0,0,0-11-5.4,13,13,0,0,0-10.79,5.33Q498.44,247.25,498.43,257.17Z"/><path class="cls-2" d="M546.58,256.14q0-12.15,5.76-19.55a18.23,18.23,0,0,1,15.09-7.4q9.27,0,14.69,6.35V208h9v75h-8.31l-.43-5.66Q577,284,567.33,284a18.06,18.06,0,0,1-15-7.52q-5.79-7.53-5.78-19.63Zm9,1q0,9,3.71,14.06a12,12,0,0,0,10.25,5.08,13.17,13.17,0,0,0,12.55-7.71V244.33a13.27,13.27,0,0,0-12.45-7.47A12.06,12.06,0,0,0,559.32,242Q555.62,247.11,555.61,257.17Z"/><path class="cls-2" d="M637.79,277.78q-5.28,6.2-15.48,6.2-8.44,0-12.87-4.91T605,264.54V230.17h9V264.3q0,12,9.76,12,10.35,0,13.77-7.71V230.17h9V283H638Z"/><path class="cls-2" d="M681.49,276.6a12.94,12.94,0,0,0,8.44-2.93,10.29,10.29,0,0,0,4-7.32h8.54a16.33,16.33,0,0,1-3.12,8.64,20.61,20.61,0,0,1-7.69,6.55A22.3,22.3,0,0,1,681.49,284q-10.8,0-17.17-7.21T658,257.07v-1.51a31.92,31.92,0,0,1,2.83-13.72,21.61,21.61,0,0,1,8.13-9.33,23.16,23.16,0,0,1,12.53-3.32,21.23,21.23,0,0,1,14.77,5.32,19,19,0,0,1,6.27,13.82h-8.54a12.47,12.47,0,0,0-3.88-8.42,12.07,12.07,0,0,0-8.62-3.3q-6.88,0-10.67,5T667,255.9v1.71q0,9.13,3.76,14.06T681.49,276.6Z"/><path class="cls-2" d="M724.9,217.38v12.79h9.86v7H724.9V270a7.38,7.38,0,0,0,1.31,4.76q1.32,1.59,4.5,1.59a21.17,21.17,0,0,0,4.29-.59V283a26.55,26.55,0,0,1-6.93,1q-6.06,0-9.13-3.67t-3.08-10.4V237.15h-9.62v-7h9.62V217.38Z"/><path class="cls-2" d="M745.35,216.15a5.38,5.38,0,0,1,1.35-3.71,5,5,0,0,1,4-1.51,5.12,5.12,0,0,1,4,1.51,5.35,5.35,0,0,1,1.37,3.71,5.35,5.35,0,1,1-10.7,0ZM755.12,283h-9V230.17h9Z"/><path class="cls-2" d="M767.18,256.1a31.29,31.29,0,0,1,3.05-14,22.86,22.86,0,0,1,8.5-9.57,23.09,23.09,0,0,1,12.43-3.37q10.79,0,17.45,7.47t6.67,19.88v.63a31.45,31.45,0,0,1-3,13.84,22.42,22.42,0,0,1-8.44,9.55A23.41,23.41,0,0,1,791.25,284q-10.74,0-17.4-7.47t-6.67-19.78Zm9.08,1.07q0,8.79,4.08,14.11a13.82,13.82,0,0,0,21.85-.07q4-5.4,4-15.11,0-8.7-4.12-14.09a13.71,13.71,0,0,0-21.76-.07Q776.27,247.25,776.26,257.17Z"/><path class="cls-2" d="M835.15,230.17l.29,6.64a19.25,19.25,0,0,1,15.82-7.62q16.75,0,16.9,18.9V283h-9V248c0-3.81-.9-6.62-2.61-8.45s-4.37-2.73-8-2.73a13.08,13.08,0,0,0-7.72,2.34,15.84,15.84,0,0,0-5.17,6.15V283h-9V230.17Z"/><path class="cls-2" d="M918.79,217.38v12.79h9.87v7h-9.87V270a7.32,7.32,0,0,0,1.32,4.76q1.32,1.59,4.49,1.59a21.25,21.25,0,0,0,4.3-.59V283a26.66,26.66,0,0,1-6.93,1q-6.06,0-9.13-3.67t-3.08-10.4V237.15h-9.62v-7h9.62V217.38Z"/><path class="cls-2" d="M935.83,256.1a31.29,31.29,0,0,1,3-14,22.86,22.86,0,0,1,8.5-9.57,23.09,23.09,0,0,1,12.43-3.37q10.79,0,17.45,7.47t6.67,19.88v.63A31.45,31.45,0,0,1,981,271a22.36,22.36,0,0,1-8.44,9.55A23.38,23.38,0,0,1,959.91,284q-10.75,0-17.41-7.47t-6.67-19.78Zm9.09,1.07q0,8.79,4.07,14.11a13.82,13.82,0,0,0,21.85-.07q4-5.4,4.06-15.11,0-8.7-4.13-14.09a13.12,13.12,0,0,0-11-5.4A13,13,0,0,0,949,241.94Q944.91,247.25,944.92,257.17Z"/><path class="cls-2" d="M1076.12,249.75A44.1,44.1,0,0,1,1072.6,268a26.63,26.63,0,0,1-10,11.89,27.45,27.45,0,0,1-15,4.1,26.52,26.52,0,0,1-25-15.9,42,42,0,0,1-3.69-17.7v-5.12a43.56,43.56,0,0,1,3.56-18.12,26.36,26.36,0,0,1,25-16.21,27.59,27.59,0,0,1,15.07,4.13,26.54,26.54,0,0,1,10,12,44.23,44.23,0,0,1,3.52,18.24Zm-9.33-4.59q0-12.65-5.08-19.41T1047.5,219a16.58,16.58,0,0,0-14,6.76q-5.1,6.76-5.25,18.77v5.23q0,12.25,5.16,19.26a16.63,16.63,0,0,0,14.18,7q9.09,0,14.06-6.62t5.13-19Z"/><path class="cls-2" d="M1103.51,258.54l-5.67,5.91V283h-9V208h9v45.36l4.84-5.81,16.45-17.38h11l-20.56,22.07,23,30.76h-10.59Z"/><path class="cls-2" d="M1151.7,217.38v12.79h9.87v7h-9.87V270a7.32,7.32,0,0,0,1.32,4.76q1.32,1.59,4.49,1.59a21.25,21.25,0,0,0,4.3-.59V283a26.66,26.66,0,0,1-6.93,1q-6.06,0-9.13-3.67t-3.08-10.4V237.15h-9.62v-7h9.62V217.38Z"/><path class="cls-2" d="M1204.73,283a19.16,19.16,0,0,1-1.27-5.57,20.13,20.13,0,0,1-15,6.55q-7.82,0-12.82-4.42a14.32,14.32,0,0,1-5-11.21q0-8.25,6.27-12.82t17.65-4.56h8.79v-4.15a10.16,10.16,0,0,0-2.83-7.55q-2.84-2.81-8.35-2.8a13.14,13.14,0,0,0-8.1,2.44,7.2,7.2,0,0,0-3.27,5.91h-9.09a12.5,12.5,0,0,1,2.81-7.65,19.17,19.17,0,0,1,7.62-5.83,25.64,25.64,0,0,1,10.57-2.15q9.13,0,14.31,4.57t5.37,12.57v24.32q0,7.28,1.85,11.57V283Zm-15-6.88a16,16,0,0,0,8.06-2.2,13.31,13.31,0,0,0,5.51-5.71V257.37h-7.08q-16.59,0-16.6,9.71a8.24,8.24,0,0,0,2.83,6.64A10.88,10.88,0,0,0,1189.74,276.12Z"/><path class="cls-2" d="M1262.05,255.17V283h-9.37V211.91h26.22q11.67,0,18.29,6t6.61,15.77q0,10.37-6.47,16t-18.53,5.59Zm0-7.67h16.85q7.51,0,11.52-3.54t4-10.25a13.42,13.42,0,0,0-4-10.18q-4-3.81-11-4h-17.39Z"/><path class="cls-2" d="M1325.82,283h-9.37V211.91h9.37Z"/><path class="cls-2" d="M1355.07,211.91l23.24,58,23.25-58h12.15V283h-9.37V255.31l.88-29.88L1381.88,283h-7.18l-23.29-57.42.93,29.73V283H1343V211.91Z"/><path class="cls-2" d="M2090.72,208.11V137H2114q11.58,0,17.41,4.78T2137.2,156a14.46,14.46,0,0,1-2.83,8.82,18.43,18.43,0,0,1-7.71,5.93,16.46,16.46,0,0,1,9.1,6.13,17.58,17.58,0,0,1,3.35,10.76q0,9.57-6.2,15t-17.53,5.47Zm9.37-40.77h14.17q6.15,0,9.83-3.08a10.35,10.35,0,0,0,3.69-8.37q0-5.87-3.42-8.54t-10.4-2.67h-13.87Zm0,7.52v25.59h15.48q6.55,0,10.33-3.4t3.78-9.35q0-12.84-14-12.84Z"/><path class="cls-2" d="M2184.18,202.89q-5.28,6.2-15.48,6.2-8.44,0-12.87-4.91t-4.47-14.53V155.28h9v34.13q0,12,9.76,12,10.35,0,13.77-7.71V155.28h9v52.83h-8.6Z"/><path class="cls-2" d="M2206.74,141.27a5.34,5.34,0,0,1,1.34-3.71,5,5,0,0,1,4-1.52,5.11,5.11,0,0,1,4,1.52,5.32,5.32,0,0,1,1.37,3.71,5.35,5.35,0,1,1-10.69,0Zm9.76,66.84h-9V155.28h9Z"/><path class="cls-2" d="M2240.77,208.11h-9v-75h9Z"/><path class="cls-2" d="M2253,181.26q0-12.16,5.77-19.56a18.22,18.22,0,0,1,15.08-7.4q9.28,0,14.7,6.35V133.11h9v75h-8.3l-.44-5.66q-5.42,6.65-15.08,6.64a18.06,18.06,0,0,1-15-7.52q-5.79-7.51-5.79-19.63Zm9,1q0,9,3.71,14.06a12,12,0,0,0,10.25,5.08,13.18,13.18,0,0,0,12.55-7.71V169.44a13.27,13.27,0,0,0-12.45-7.47,12,12,0,0,0-10.35,5.13Q2262.07,172.21,2262.06,182.28Z"/><path class="cls-2" d="M2358.74,176.42q-12.06-3.46-17.56-8.52a16.29,16.29,0,0,1-5.49-12.47,17.24,17.24,0,0,1,6.71-13.9q6.72-5.49,17.46-5.49a29.22,29.22,0,0,1,13.06,2.83,21.49,21.49,0,0,1,8.89,7.82,20,20,0,0,1,3.15,10.88h-9.43q0-6.47-4.1-10.16t-11.57-3.7q-6.93,0-10.81,3.06a10.17,10.17,0,0,0-3.89,8.48,9.16,9.16,0,0,0,3.69,7.36q3.69,3,12.55,5.51a58.26,58.26,0,0,1,13.87,5.49,21.15,21.15,0,0,1,7.42,7,17.9,17.9,0,0,1,2.41,9.43,16.61,16.61,0,0,1-6.73,13.84q-6.75,5.19-18,5.2a33.44,33.44,0,0,1-13.67-2.81,22.94,22.94,0,0,1-9.79-7.69,18.72,18.72,0,0,1-3.45-11.08h9.43a12.26,12.26,0,0,0,4.76,10.18q4.76,3.74,12.72,3.73,7.43,0,11.38-3a9.86,9.86,0,0,0,3.95-8.26,9.66,9.66,0,0,0-3.66-8.08Q2368.36,179.21,2358.74,176.42Z"/><path class="cls-2" d="M2428.32,202.89q-5.28,6.2-15.48,6.2-8.45,0-12.87-4.91t-4.46-14.53V155.28h9v34.13q0,12,9.76,12,10.36,0,13.77-7.71V155.28h9v52.83h-8.6Z"/><path class="cls-2" d="M2476.36,163.39a26.66,26.66,0,0,0-4.44-.35q-8.88,0-12.06,7.57v37.5h-9V155.28h8.79l.14,6.1a14.06,14.06,0,0,1,12.6-7.08,9.12,9.12,0,0,1,4,.69Z"/><path class="cls-2" d="M2510.2,163.39a26.74,26.74,0,0,0-4.44-.35q-8.9,0-12.06,7.57v37.5h-9V155.28h8.78l.15,6.1a14.06,14.06,0,0,1,12.6-7.08,9.12,9.12,0,0,1,4,.69Z"/><path class="cls-2" d="M2515.13,181.21a31.16,31.16,0,0,1,3.06-14,22.77,22.77,0,0,1,8.49-9.57,23.18,23.18,0,0,1,12.43-3.37q10.79,0,17.45,7.47t6.67,19.88v.63a31.42,31.42,0,0,1-2.95,13.84,22.45,22.45,0,0,1-8.45,9.55,23.38,23.38,0,0,1-12.62,3.42q-10.74,0-17.41-7.47t-6.67-19.78Zm9.09,1.07q0,8.79,4.07,14.11a13.81,13.81,0,0,0,21.85-.07q4.07-5.4,4.06-15.11,0-8.7-4.13-14.09a13.1,13.1,0,0,0-11-5.39,13,13,0,0,0-10.79,5.32Q2524.21,172.38,2524.22,182.28Z"/><path class="cls-2" d="M2607.18,202.89q-5.28,6.2-15.48,6.2c-5.64,0-9.92-1.64-12.87-4.91s-4.44-8.11-4.47-14.53V155.28h9v34.13q0,12,9.76,12,10.35,0,13.77-7.71V155.28h9v52.83h-8.59Z"/><path class="cls-2" d="M2638.23,155.28l.29,6.64a19.25,19.25,0,0,1,15.82-7.62q16.76,0,16.9,18.9v34.91h-9v-35c0-3.81-.9-6.62-2.61-8.45s-4.37-2.73-8-2.73a13.08,13.08,0,0,0-7.72,2.34,16,16,0,0,0-5.17,6.16v37.64h-9V155.28Z"/><path class="cls-2" d="M2682.66,181.26q0-12.16,5.77-19.56a18.22,18.22,0,0,1,15.08-7.4q9.28,0,14.7,6.35V133.11h9v75h-8.3l-.44-5.66q-5.41,6.65-15.08,6.64a18.06,18.06,0,0,1-15-7.52q-5.79-7.51-5.79-19.63Zm9,1q0,9,3.71,14.06a12,12,0,0,0,10.25,5.08,13.18,13.18,0,0,0,12.55-7.71V169.44a13.27,13.27,0,0,0-12.45-7.47,12,12,0,0,0-10.35,5.13Q2691.69,172.21,2691.7,182.28Z"/><path class="cls-2" d="M2741.31,141.27a5.34,5.34,0,0,1,1.34-3.71,5,5,0,0,1,4-1.52,5.11,5.11,0,0,1,4,1.52,5.32,5.32,0,0,1,1.37,3.71,5.35,5.35,0,1,1-10.69,0Zm9.76,66.84h-9V155.28h9Z"/><path class="cls-2" d="M2774.07,155.28l.29,6.64a19.25,19.25,0,0,1,15.82-7.62q16.76,0,16.9,18.9v34.91h-9v-35c0-3.81-.9-6.62-2.61-8.45s-4.37-2.73-8-2.73a13.08,13.08,0,0,0-7.72,2.34,16,16,0,0,0-5.17,6.16v37.64h-9V155.28Z"/><path class="cls-2" d="M2818.55,181.26q0-12.36,5.71-19.66a18.3,18.3,0,0,1,15.14-7.3q9.67,0,15.09,6.84l.44-5.86h8.25v51.56q0,10.26-6.08,16.16t-16.33,5.91a27.1,27.1,0,0,1-11.18-2.44,19.25,19.25,0,0,1-8.35-6.69l4.69-5.42q5.81,7.19,14.2,7.18,6.6,0,10.28-3.71t3.69-10.45v-4.54q-5.42,6.25-14.8,6.25a18,18,0,0,1-15-7.47Q2818.55,194.15,2818.55,181.26Zm9.08,1q0,8.94,3.67,14a11.9,11.9,0,0,0,10.25,5.1q8.55,0,12.55-7.76V169.54q-4.16-7.57-12.45-7.57a12,12,0,0,0-10.31,5.13Q2827.64,172.21,2827.63,182.28Z"/><path class="cls-2" d="M2923.92,176.42q-12.06-3.46-17.55-8.52a16.29,16.29,0,0,1-5.49-12.47,17.21,17.21,0,0,1,6.71-13.9q6.72-5.49,17.46-5.49a29.25,29.25,0,0,1,13.06,2.83,21.52,21.52,0,0,1,8.88,7.82,20,20,0,0,1,3.15,10.88h-9.42q0-6.47-4.1-10.16t-11.57-3.7q-6.95,0-10.82,3.06a10.17,10.17,0,0,0-3.88,8.48,9.16,9.16,0,0,0,3.69,7.36q3.67,3,12.54,5.51a58.26,58.26,0,0,1,13.87,5.49,21.07,21.07,0,0,1,7.42,7,17.9,17.9,0,0,1,2.42,9.43,16.62,16.62,0,0,1-6.74,13.84q-6.74,5.19-18,5.2a33.44,33.44,0,0,1-13.67-2.81,23,23,0,0,1-9.79-7.69,18.79,18.79,0,0,1-3.44-11.08h9.42a12.26,12.26,0,0,0,4.76,10.18q4.77,3.74,12.72,3.73,7.42,0,11.38-3a9.84,9.84,0,0,0,4-8.26,9.65,9.65,0,0,0-3.67-8.08Q2933.54,179.21,2923.92,176.42Z"/><path class="cls-2" d="M2982.81,209.09q-10.74,0-17.48-7.06t-6.74-18.87V181.5a31.75,31.75,0,0,1,3-14,23.54,23.54,0,0,1,8.4-9.67,21.2,21.2,0,0,1,11.7-3.49q10.29,0,16,6.79t5.72,19.43v3.76h-35.8q.2,7.82,4.57,12.63a14.37,14.37,0,0,0,11.11,4.81,15.72,15.72,0,0,0,8.1-2,20.35,20.35,0,0,0,5.81-5.17l5.52,4.29Q2996.09,209.1,2982.81,209.09Zm-1.12-47.36a12,12,0,0,0-9.18,4q-3.72,4-4.59,11.16h26.46v-.68q-.39-6.88-3.71-10.67A11.34,11.34,0,0,0,2981.69,161.73Z"/><path class="cls-2" d="M3039.4,163.39A26.83,26.83,0,0,0,3035,163q-8.89,0-12.06,7.57v37.5h-9V155.28h8.79l.15,6.1a14.06,14.06,0,0,1,12.6-7.08,9.12,9.12,0,0,1,4,.69Z"/><path class="cls-2" d="M3066,195.86l13.09-40.58h9.23l-18.95,52.83h-6.88l-19.14-52.83h9.23Z"/><path class="cls-2" d="M3097.07,141.27a5.34,5.34,0,0,1,1.34-3.71,5,5,0,0,1,4-1.52,5.11,5.11,0,0,1,4,1.52,5.32,5.32,0,0,1,1.37,3.71,5.35,5.35,0,1,1-10.69,0Zm9.76,66.84h-9V155.28h9Z"/><path class="cls-2" d="M3142.48,201.72a13,13,0,0,0,8.45-2.93,10.36,10.36,0,0,0,4-7.33h8.54a16.33,16.33,0,0,1-3.12,8.64,20.61,20.61,0,0,1-7.69,6.55,22.3,22.3,0,0,1-10.18,2.44q-10.8,0-17.17-7.2t-6.37-19.71v-1.51a31.92,31.92,0,0,1,2.83-13.72,21.66,21.66,0,0,1,8.13-9.33,23.16,23.16,0,0,1,12.53-3.32,21.19,21.19,0,0,1,14.77,5.33,19,19,0,0,1,6.27,13.81h-8.54a12.49,12.49,0,0,0-3.88-8.42,12.06,12.06,0,0,0-8.62-3.29q-6.88,0-10.67,5T3128,181v1.71q0,9.14,3.76,14.06T3142.48,201.72Z"/><path class="cls-2" d="M3195.55,209.09q-10.74,0-17.48-7.06t-6.73-18.87V181.5a31.75,31.75,0,0,1,3-14,23.4,23.4,0,0,1,8.4-9.67,21.14,21.14,0,0,1,11.69-3.49q10.31,0,16,6.79t5.71,19.43v3.76h-35.79q.2,7.82,4.56,12.63a14.39,14.39,0,0,0,11.11,4.81,15.79,15.79,0,0,0,8.11-2,20.48,20.48,0,0,0,5.81-5.17l5.52,4.29Q3208.84,209.1,3195.55,209.09Zm-1.12-47.36a12.05,12.05,0,0,0-9.18,4q-3.7,4-4.59,11.16h26.47v-.68q-.39-6.88-3.71-10.67A11.37,11.37,0,0,0,3194.43,161.73Z"/><path class="cls-2" d="M3257.37,194.1a6.65,6.65,0,0,0-2.76-5.69q-2.76-2-9.62-3.49a45.62,45.62,0,0,1-10.89-3.52,15.38,15.38,0,0,1-5.95-4.88,11.65,11.65,0,0,1-1.93-6.74,13.69,13.69,0,0,1,5.49-11q5.49-4.5,14-4.5,9,0,14.57,4.64a14.74,14.74,0,0,1,5.6,11.87h-9.09a8.15,8.15,0,0,0-3.15-6.4,11.79,11.79,0,0,0-7.93-2.68q-4.93,0-7.72,2.14a6.79,6.79,0,0,0-2.78,5.62,5.47,5.47,0,0,0,2.59,4.93q2.58,1.67,9.35,3.17a48.69,48.69,0,0,1,11,3.62,16,16,0,0,1,6.23,5,12.43,12.43,0,0,1,2,7.2,13.52,13.52,0,0,1-5.66,11.36q-5.67,4.26-14.7,4.27a26.58,26.58,0,0,1-11.23-2.25,18.28,18.28,0,0,1-7.64-6.27,15.13,15.13,0,0,1-2.76-8.72h9a9.37,9.37,0,0,0,3.64,7.2,14.08,14.08,0,0,0,9,2.67,14.61,14.61,0,0,0,8.23-2.08A6.36,6.36,0,0,0,3257.37,194.1Z"/><path class="cls-2" d="M2414.79,328.11a19.16,19.16,0,0,1-1.27-5.57,20.13,20.13,0,0,1-15,6.55c-5.2,0-9.48-1.47-12.81-4.42a14.3,14.3,0,0,1-5-11.21q0-8.25,6.28-12.81t17.65-4.57h8.79v-4.15a10.13,10.13,0,0,0-2.84-7.54c-1.88-1.88-4.67-2.81-8.35-2.81a13.14,13.14,0,0,0-8.1,2.44,7.2,7.2,0,0,0-3.27,5.91h-9.08a12.44,12.44,0,0,1,2.8-7.64,19.17,19.17,0,0,1,7.62-5.84,25.67,25.67,0,0,1,10.57-2.15q9.14,0,14.31,4.57t5.37,12.57v24.32q0,7.28,1.85,11.57v.78Zm-15-6.88a16,16,0,0,0,8.06-2.2,13.34,13.34,0,0,0,5.52-5.71V302.48h-7.08q-16.61,0-16.61,9.71a8.2,8.2,0,0,0,2.84,6.64A10.84,10.84,0,0,0,2399.8,321.23Z"/><path class="cls-2" d="M2445.11,275.28l.3,6.64a19.24,19.24,0,0,1,15.82-7.62q16.74,0,16.89,18.9v34.91h-9v-35c0-3.81-.9-6.62-2.61-8.45s-4.37-2.73-8-2.73a13,13,0,0,0-7.71,2.34,16,16,0,0,0-5.18,6.15v37.65h-9V275.28Z"/><path class="cls-2" d="M2489.55,301.26q0-12.17,5.76-19.56a18.23,18.23,0,0,1,15.09-7.4q9.27,0,14.69,6.35V253.11h9v75h-8.3l-.44-5.66q-5.43,6.65-15.09,6.64a18.06,18.06,0,0,1-15-7.52q-5.77-7.51-5.78-19.63Zm9,1q0,9,3.71,14.06a12,12,0,0,0,10.26,5.08,13.16,13.16,0,0,0,12.54-7.71V289.44a13.27,13.27,0,0,0-12.45-7.47,12.06,12.06,0,0,0-10.35,5.13Q2498.59,292.21,2498.58,302.28Z"/><path class="cls-2" d="M2583.69,300.28v27.83h-9.38V257h26.22q11.67,0,18.29,6t6.62,15.78q0,10.35-6.47,15.94t-18.53,5.59Zm0-7.67h16.84q7.53,0,11.53-3.54t4-10.25a13.38,13.38,0,0,0-4-10.17q-4-3.82-11-4h-17.38Z"/><path class="cls-2" d="M2645.8,328.11h-9v-75h9Z"/><path class="cls-2" d="M2692.87,328.11a18.83,18.83,0,0,1-1.27-5.57,20.13,20.13,0,0,1-15,6.55q-7.82,0-12.82-4.42a14.32,14.32,0,0,1-5-11.21q0-8.25,6.27-12.81t17.65-4.57h8.79v-4.15a10.12,10.12,0,0,0-2.83-7.54c-1.89-1.88-4.67-2.81-8.35-2.81a13.14,13.14,0,0,0-8.1,2.44,7.19,7.19,0,0,0-3.28,5.91h-9.08a12.45,12.45,0,0,1,2.81-7.64,19.1,19.1,0,0,1,7.62-5.84,25.64,25.64,0,0,1,10.57-2.15q9.12,0,14.3,4.57t5.38,12.57v24.32q0,7.28,1.85,11.57v.78Zm-15-6.88a15.88,15.88,0,0,0,8-2.2,13.34,13.34,0,0,0,5.52-5.71V302.48h-7.08q-16.6,0-16.6,9.71a8.23,8.23,0,0,0,2.83,6.64A10.88,10.88,0,0,0,2677.88,321.23Z"/><path class="cls-2" d="M2726.9,262.49v12.79h9.86v7h-9.86v32.81a7.29,7.29,0,0,0,1.32,4.76q1.32,1.59,4.49,1.59a21.84,21.84,0,0,0,4.3-.58v7.28a26.25,26.25,0,0,1-6.93,1q-6.06,0-9.14-3.66t-3.07-10.4V282.26h-9.62v-7h9.62V262.49Z"/><path class="cls-2" d="M2751.76,328.11V282.26h-8.35v-7h8.35v-5.42q0-8.49,4.54-13.14t12.84-4.63a23.84,23.84,0,0,1,6.2.82l-.49,7.28a26.2,26.2,0,0,0-4.88-.44,8.84,8.84,0,0,0-6.79,2.57q-2.38,2.58-2.39,7.38v5.58h11.28v7h-11.28v45.85Z"/><path class="cls-2" d="M2779.64,301.21a31.16,31.16,0,0,1,3.05-14,22.77,22.77,0,0,1,8.49-9.57,23.21,23.21,0,0,1,12.43-3.37q10.79,0,17.46,7.47t6.66,19.88v.63a31.49,31.49,0,0,1-2.95,13.85,22.48,22.48,0,0,1-8.45,9.54,23.38,23.38,0,0,1-12.62,3.42q-10.74,0-17.41-7.47t-6.66-19.78Zm9.08,1.07q0,8.79,4.08,14.11a13.82,13.82,0,0,0,21.85-.07q4-5.4,4-15.11,0-8.7-4.13-14.09a13.11,13.11,0,0,0-11-5.4,13,13,0,0,0-10.79,5.33Q2788.73,292.38,2788.72,302.28Z"/><path class="cls-2" d="M2864.6,283.38a28,28,0,0,0-4.45-.34q-8.88,0-12.06,7.57v37.5h-9V275.28h8.79l.15,6.1a14.06,14.06,0,0,1,12.59-7.08,9.17,9.17,0,0,1,4,.69Z"/><path class="cls-2" d="M2881.39,275.28l.25,5.86q5.81-6.84,15.67-6.84,11.08,0,15.09,8.5a20,20,0,0,1,6.86-6.15,20.19,20.19,0,0,1,10-2.35q17.37,0,17.67,18.41v35.4h-9V293.25q0-5.67-2.59-8.47c-1.73-1.87-4.62-2.81-8.69-2.81a12,12,0,0,0-8.35,3,12.21,12.21,0,0,0-3.86,8.08v35.06h-9.08V293.49q0-11.52-11.28-11.52-8.88,0-12.16,7.57v38.57h-9V275.28Z"/><path class="cls-2" d="M3923.86,172.42q-12.06-3.46-17.56-8.52a16.29,16.29,0,0,1-5.49-12.47,17.24,17.24,0,0,1,6.71-13.9Q3914.24,132,3925,132a29.22,29.22,0,0,1,13.06,2.83,21.49,21.49,0,0,1,8.89,7.82,20,20,0,0,1,3.15,10.88h-9.43q0-6.47-4.1-10.16t-11.57-3.7q-6.93,0-10.82,3.06a10.19,10.19,0,0,0-3.88,8.48,9.16,9.16,0,0,0,3.69,7.36q3.69,3,12.55,5.51a58,58,0,0,1,13.86,5.49,21.1,21.1,0,0,1,7.43,7,17.9,17.9,0,0,1,2.41,9.43,16.61,16.61,0,0,1-6.73,13.84q-6.75,5.19-18,5.2a33.44,33.44,0,0,1-13.67-2.81,22.88,22.88,0,0,1-9.79-7.69,18.72,18.72,0,0,1-3.45-11.08H3908a12.23,12.23,0,0,0,4.76,10.18q4.76,3.74,12.72,3.73,7.43,0,11.37-3a9.84,9.84,0,0,0,4-8.26,9.66,9.66,0,0,0-3.66-8.08Q3933.48,175.21,3923.86,172.42Z"/><path class="cls-2" d="M4007.6,191.66l10.15-40.38h9l-15.38,52.83h-7.33l-12.84-40-12.5,40h-7.32l-15.34-52.83h9l10.4,39.55,12.3-39.55h7.28Z"/><path class="cls-2" d="M4036,137.27a5.35,5.35,0,0,1,1.35-3.71,5,5,0,0,1,4-1.52,5.12,5.12,0,0,1,4,1.52,5.32,5.32,0,0,1,1.37,3.71,5.18,5.18,0,0,1-1.37,3.66,5.23,5.23,0,0,1-4,1.46,5.14,5.14,0,0,1-4-1.46A5.21,5.21,0,0,1,4036,137.27Zm9.77,66.84h-9V151.28h9Z"/><path class="cls-2" d="M4072.49,138.49v12.79h9.86v7h-9.86v32.81a7.31,7.31,0,0,0,1.32,4.76c.88,1.06,2.37,1.59,4.49,1.59a21.93,21.93,0,0,0,4.3-.58v7.28a26.26,26.26,0,0,1-6.94,1q-6,0-9.13-3.66t-3.07-10.4V158.26h-9.62v-7h9.62V138.49Z"/><path class="cls-2" d="M4114.09,197.72a13,13,0,0,0,8.45-2.93,10.32,10.32,0,0,0,4-7.33h8.55a16.43,16.43,0,0,1-3.13,8.64,20.54,20.54,0,0,1-7.69,6.55,22.26,22.26,0,0,1-10.18,2.44q-10.79,0-17.16-7.2t-6.37-19.71v-1.51a31.77,31.77,0,0,1,2.83-13.72,21.66,21.66,0,0,1,8.13-9.33A23.1,23.1,0,0,1,4114,150.3a21.17,21.17,0,0,1,14.77,5.33,19,19,0,0,1,6.28,13.81h-8.55a12.45,12.45,0,0,0-3.88-8.42,12.06,12.06,0,0,0-8.62-3.29q-6.89,0-10.67,5T4099.59,177v1.71q0,9.14,3.76,14.06C4105.85,196.07,4109.44,197.72,4114.09,197.72Z"/><path class="cls-2" d="M4154.28,157.68a19.19,19.19,0,0,1,15.62-7.38q16.76,0,16.9,18.9v34.91h-9v-35c0-3.81-.9-6.62-2.61-8.45s-4.37-2.73-8-2.73a13.08,13.08,0,0,0-7.72,2.34,15.94,15.94,0,0,0-5.17,6.16v37.64h-9v-75h9Z"/><path class="cls-2" d="M4237.33,138.49v12.79h9.87v7h-9.87v32.81a7.31,7.31,0,0,0,1.32,4.76q1.32,1.59,4.49,1.59a21.84,21.84,0,0,0,4.3-.58v7.28a26.25,26.25,0,0,1-6.93,1q-6.06,0-9.13-3.66T4228.3,191V158.26h-9.62v-7h9.62V138.49Z"/><path class="cls-2" d="M4254.37,177.21a31.16,31.16,0,0,1,3.06-14,22.77,22.77,0,0,1,8.49-9.57,23.18,23.18,0,0,1,12.43-3.37q10.78,0,17.45,7.47t6.67,19.88v.63a31.42,31.42,0,0,1-2.95,13.84,22.45,22.45,0,0,1-8.45,9.55,23.38,23.38,0,0,1-12.62,3.42q-10.76,0-17.41-7.47t-6.67-19.78Zm9.09,1.07q0,8.79,4.07,14.11a13.81,13.81,0,0,0,21.85-.07q4.06-5.4,4.06-15.11,0-8.7-4.13-14.09a13.1,13.1,0,0,0-11-5.39,13,13,0,0,0-10.79,5.32Q4263.45,168.38,4263.46,178.28Z"/><path class="cls-2" d="M4360.92,172.42q-12.06-3.46-17.56-8.52a16.29,16.29,0,0,1-5.49-12.47,17.24,17.24,0,0,1,6.71-13.9Q4351.3,132,4362,132a29.22,29.22,0,0,1,13.06,2.83,21.49,21.49,0,0,1,8.89,7.82,20,20,0,0,1,3.15,10.88h-9.43q0-6.47-4.1-10.16t-11.57-3.7q-6.93,0-10.82,3.06a10.19,10.19,0,0,0-3.88,8.48,9.16,9.16,0,0,0,3.69,7.36q3.69,3,12.55,5.51a58.26,58.26,0,0,1,13.87,5.49,21.15,21.15,0,0,1,7.42,7,17.9,17.9,0,0,1,2.41,9.43,16.61,16.61,0,0,1-6.73,13.84q-6.75,5.19-18,5.2a33.44,33.44,0,0,1-13.67-2.81,22.88,22.88,0,0,1-9.79-7.69,18.72,18.72,0,0,1-3.45-11.08h9.43a12.23,12.23,0,0,0,4.76,10.18q4.75,3.74,12.72,3.73,7.43,0,11.38-3a9.86,9.86,0,0,0,3.95-8.26,9.66,9.66,0,0,0-3.66-8.08Q4370.54,175.21,4360.92,172.42Z"/><path class="cls-2" d="M4419.8,205.09q-10.74,0-17.48-7.06t-6.73-18.87V177.5a31.75,31.75,0,0,1,3-14,23.4,23.4,0,0,1,8.4-9.67,21.14,21.14,0,0,1,11.69-3.49q10.31,0,16,6.79t5.71,19.43v3.76h-35.79q.2,7.82,4.56,12.63a14.39,14.39,0,0,0,11.11,4.81,15.79,15.79,0,0,0,8.11-2,20.48,20.48,0,0,0,5.81-5.17l5.52,4.29Q4433.09,205.1,4419.8,205.09Zm-1.12-47.36a12,12,0,0,0-9.18,4q-3.7,4-4.59,11.16h26.47v-.68q-.39-6.88-3.71-10.67A11.37,11.37,0,0,0,4418.68,157.73Z"/><path class="cls-2" d="M4460.67,204.11h-9v-75h9Z"/><path class="cls-2" d="M4479.57,204.11V158.26h-8.35v-7h8.35v-5.42q0-8.49,4.54-13.13t12.84-4.64a23.79,23.79,0,0,1,6.2.82l-.48,7.28a26.31,26.31,0,0,0-4.89-.44,8.8,8.8,0,0,0-6.78,2.57q-2.4,2.58-2.4,7.38v5.58h11.28v7H4488.6v45.85Z"/><path class="cls-2" d="M4528.64,177.6h-23.83v-7.37h23.83Z"/><path class="cls-2" d="M4559.79,172.42q-12.06-3.46-17.55-8.52a16.29,16.29,0,0,1-5.49-12.47,17.24,17.24,0,0,1,6.71-13.9q6.72-5.49,17.46-5.49a29.25,29.25,0,0,1,13.06,2.83,21.55,21.55,0,0,1,8.89,7.82,20,20,0,0,1,3.14,10.88h-9.42q0-6.47-4.1-10.16t-11.57-3.7q-6.94,0-10.82,3.06a10.17,10.17,0,0,0-3.88,8.48,9.16,9.16,0,0,0,3.69,7.36q3.67,3,12.55,5.51a58.16,58.16,0,0,1,13.86,5.49,21.07,21.07,0,0,1,7.42,7,17.81,17.81,0,0,1,2.42,9.43,16.59,16.59,0,0,1-6.74,13.84q-6.73,5.19-18,5.2a33.49,33.49,0,0,1-13.68-2.81,23,23,0,0,1-9.79-7.69,18.79,18.79,0,0,1-3.44-11.08h9.43a12.23,12.23,0,0,0,4.76,10.18q4.76,3.74,12.72,3.73c4.94,0,8.74-1,11.37-3a9.84,9.84,0,0,0,4-8.26,9.66,9.66,0,0,0-3.66-8.08Q4569.41,175.21,4559.79,172.42Z"/><path class="cls-2" d="M4594.36,177.21a31.16,31.16,0,0,1,3.06-14,22.77,22.77,0,0,1,8.49-9.57,23.18,23.18,0,0,1,12.43-3.37q10.78,0,17.46,7.47t6.66,19.88v.63a31.42,31.42,0,0,1-2.95,13.84,22.45,22.45,0,0,1-8.45,9.55,23.38,23.38,0,0,1-12.62,3.42q-10.75,0-17.41-7.47t-6.67-19.78Zm9.09,1.07q0,8.79,4.07,14.11a13.81,13.81,0,0,0,21.85-.07q4.06-5.4,4.06-15.11,0-8.7-4.13-14.09a13.1,13.1,0,0,0-11-5.39,13,13,0,0,0-10.79,5.32Q4603.44,168.38,4603.45,178.28Z"/><path class="cls-2" d="M4670.49,191.86l13.08-40.58h9.23l-18.94,52.83H4667l-19.14-52.83h9.23Z"/><path class="cls-2" d="M4722.78,205.09q-10.74,0-17.48-7.06t-6.74-18.87V177.5a31.61,31.61,0,0,1,3-14,23.4,23.4,0,0,1,8.4-9.67,21.14,21.14,0,0,1,11.69-3.49q10.31,0,16,6.79t5.71,19.43v3.76H4707.6q.19,7.82,4.56,12.63a14.39,14.39,0,0,0,11.11,4.81,15.79,15.79,0,0,0,8.11-2,20.48,20.48,0,0,0,5.81-5.17l5.51,4.29Q4736.07,205.1,4722.78,205.09Zm-1.12-47.36a12,12,0,0,0-9.18,4q-3.7,4-4.59,11.16h26.46v-.68q-.39-6.88-3.71-10.67A11.34,11.34,0,0,0,4721.66,157.73Z"/><path class="cls-2" d="M4779.37,159.39a26.66,26.66,0,0,0-4.44-.35q-8.88,0-12.06,7.57v37.5h-9V151.28h8.79l.14,6.1a14.06,14.06,0,0,1,12.6-7.08,9.12,9.12,0,0,1,4,.69Z"/><path class="cls-2" d="M4808.67,205.09q-10.74,0-17.48-7.06t-6.74-18.87V177.5a31.61,31.61,0,0,1,3-14,23.45,23.45,0,0,1,8.39-9.67,21.2,21.2,0,0,1,11.7-3.49q10.3,0,16,6.79t5.72,19.43v3.76h-35.79q.19,7.82,4.56,12.63a14.37,14.37,0,0,0,11.11,4.81,15.72,15.72,0,0,0,8.1-2,20.39,20.39,0,0,0,5.82-5.17l5.51,4.29Q4822,205.1,4808.67,205.09Zm-1.12-47.36a12,12,0,0,0-9.18,4q-3.72,4-4.59,11.16h26.46v-.68q-.39-6.88-3.71-10.67A11.34,11.34,0,0,0,4807.55,157.73Z"/><path class="cls-2" d="M4839.77,137.27a5.35,5.35,0,0,1,1.35-3.71,5,5,0,0,1,4-1.52,5.12,5.12,0,0,1,4,1.52,5.32,5.32,0,0,1,1.37,3.71,5.18,5.18,0,0,1-1.37,3.66,5.23,5.23,0,0,1-4,1.46,5.14,5.14,0,0,1-4-1.46A5.21,5.21,0,0,1,4839.77,137.27Zm9.77,66.84h-9V151.28h9Z"/><path class="cls-2" d="M4861.84,177.26q0-12.36,5.72-19.66a18.28,18.28,0,0,1,15.13-7.3q9.68,0,15.09,6.84l.44-5.86h8.25v51.56q0,10.26-6.08,16.16t-16.33,5.91a27.13,27.13,0,0,1-11.18-2.44,19.25,19.25,0,0,1-8.35-6.69l4.69-5.42q5.8,7.19,14.21,7.18,6.58,0,10.28-3.71t3.68-10.45v-4.54q-5.42,6.25-14.79,6.25a18.06,18.06,0,0,1-15-7.47Q4861.85,190.15,4861.84,177.26Zm9.09,1q0,8.94,3.66,14a11.9,11.9,0,0,0,10.25,5.1q8.55,0,12.55-7.76V165.54q-4.16-7.57-12.45-7.57a12,12,0,0,0-10.3,5.13Q4870.92,168.21,4870.93,178.28Z"/><path class="cls-2" d="M4928.64,151.28l.29,6.64a19.26,19.26,0,0,1,15.83-7.62q16.74,0,16.89,18.9v34.91h-9v-35c0-3.81-.91-6.62-2.62-8.45s-4.37-2.73-8-2.73a13,13,0,0,0-7.71,2.34,16,16,0,0,0-5.18,6.16v37.64h-9V151.28Z"/><path class="cls-2" d="M4121.78,324.11h-9.37V253h9.37Z"/><path class="cls-2" d="M4135.31,297.26q0-12.17,5.76-19.56a18.23,18.23,0,0,1,15.09-7.4q9.27,0,14.69,6.35V249.11h9v75h-8.3l-.44-5.66q-5.43,6.65-15.09,6.64a18.06,18.06,0,0,1-15-7.52q-5.78-7.51-5.78-19.63Zm9,1q0,9,3.71,14.06a12,12,0,0,0,10.25,5.08,13.17,13.17,0,0,0,12.55-7.71V285.44A13.27,13.27,0,0,0,4158.4,278a12.05,12.05,0,0,0-10.35,5.13Q4144.34,288.21,4144.34,298.28Z"/><path class="cls-2" d="M4215.82,325.09q-10.74,0-17.48-7.06t-6.73-18.87V297.5a31.75,31.75,0,0,1,3-14,23.4,23.4,0,0,1,8.4-9.67,21.14,21.14,0,0,1,11.69-3.49q10.3,0,16,6.79t5.71,19.43v3.76h-35.79q.2,7.82,4.56,12.63a14.38,14.38,0,0,0,11.11,4.8,15.79,15.79,0,0,0,8.11-1.95,20.48,20.48,0,0,0,5.81-5.17l5.52,4.29Q4229.1,325.1,4215.82,325.09Zm-1.12-47.37a12.05,12.05,0,0,0-9.18,4q-3.7,4-4.59,11.15h26.47v-.68q-.39-6.89-3.71-10.67A11.37,11.37,0,0,0,4214.7,277.72Z"/><path class="cls-2" d="M4255.42,271.28l.3,6.64a19.24,19.24,0,0,1,15.82-7.62q16.74,0,16.89,18.9v34.91h-9v-35c0-3.81-.9-6.62-2.61-8.45s-4.37-2.73-8-2.73a13,13,0,0,0-7.71,2.34,16,16,0,0,0-5.18,6.15v37.65h-9V271.28Z"/><path class="cls-2" d="M4314.31,258.49v12.79h9.86v7h-9.86v32.81a7.29,7.29,0,0,0,1.32,4.76q1.32,1.59,4.49,1.59a21.93,21.93,0,0,0,4.3-.58v7.28a26.26,26.26,0,0,1-6.94,1q-6,0-9.13-3.66t-3.07-10.4V278.26h-9.62v-7h9.62V258.49Z"/><path class="cls-2" d="M4334.77,257.27a5.43,5.43,0,0,1,1.34-3.72,5.08,5.08,0,0,1,4-1.51,5.17,5.17,0,0,1,4,1.51,5.35,5.35,0,0,1,1.36,3.72,5.17,5.17,0,0,1-1.36,3.66,5.26,5.26,0,0,1-4,1.46,5.16,5.16,0,0,1-4-1.46A5.24,5.24,0,0,1,4334.77,257.27Zm9.77,66.84h-9V271.28h9Z"/><path class="cls-2" d="M4371.24,258.49v12.79h9.87v7h-9.87v32.81a7.29,7.29,0,0,0,1.32,4.76q1.32,1.59,4.49,1.59a21.75,21.75,0,0,0,4.3-.58v7.28a26.19,26.19,0,0,1-6.93,1q-6.06,0-9.13-3.66t-3.08-10.4V278.26h-9.62v-7h9.62V258.49Z"/><path class="cls-2" d="M4408.94,310.88l12.3-39.6h9.67l-21.24,61q-4.93,13.17-15.67,13.18l-1.71-.15-3.37-.63v-7.33l2.44.2a12,12,0,0,0,7.15-1.86c1.71-1.23,3.12-3.5,4.23-6.78l2-5.37-18.85-52.25h9.87Z"/><path class="cls-2" d="M4477.25,253l23.24,58,23.24-58h12.16v71.09h-9.37V296.43l.88-29.89-23.34,57.57h-7.18l-23.29-57.42.93,29.74v27.68h-9.38V253Z"/><path class="cls-2" d="M4548.64,297.21a31.16,31.16,0,0,1,3-14,22.77,22.77,0,0,1,8.49-9.57,23.21,23.21,0,0,1,12.43-3.37q10.8,0,17.46,7.47t6.66,19.88v.63a31.49,31.49,0,0,1-2.95,13.85,22.48,22.48,0,0,1-8.45,9.54,23.38,23.38,0,0,1-12.62,3.42q-10.74,0-17.41-7.47t-6.66-19.78Zm9.08,1.07q0,8.79,4.08,14.11a13.82,13.82,0,0,0,21.85-.07q4.05-5.4,4.05-15.11,0-8.7-4.13-14.09a13.11,13.11,0,0,0-11-5.4,13,13,0,0,0-10.79,5.33Q4557.73,288.38,4557.72,298.28Z"/><path class="cls-2" d="M4605.86,297.26q0-12.17,5.77-19.56a18.22,18.22,0,0,1,15.08-7.4q9.28,0,14.7,6.35V249.11h9v75h-8.3l-.44-5.66q-5.41,6.65-15.08,6.64a18.06,18.06,0,0,1-15-7.52q-5.79-7.51-5.79-19.63Zm9,1q0,9,3.71,14.06a12,12,0,0,0,10.25,5.08,13.18,13.18,0,0,0,12.55-7.71V285.44A13.27,13.27,0,0,0,4629,278a12,12,0,0,0-10.35,5.13Q4614.89,288.21,4614.9,298.28Z"/><path class="cls-2" d="M4686.38,325.09q-10.74,0-17.48-7.06t-6.74-18.87V297.5a31.61,31.61,0,0,1,3-14,23.45,23.45,0,0,1,8.39-9.67,21.2,21.2,0,0,1,11.7-3.49q10.31,0,16,6.79t5.72,19.43v3.76H4671.2q.2,7.82,4.56,12.63a14.37,14.37,0,0,0,11.11,4.8,15.72,15.72,0,0,0,8.1-1.95,20.39,20.39,0,0,0,5.82-5.17l5.51,4.29Q4699.67,325.1,4686.38,325.09Zm-1.12-47.37a12,12,0,0,0-9.18,4q-3.72,4-4.59,11.15H4698v-.68q-.39-6.89-3.71-10.67A11.35,11.35,0,0,0,4685.26,277.72Z"/><path class="cls-2" d="M4727.25,324.11h-9v-75h9Z"/></svg>