<svg xmlns="http://www.w3.org/2000/svg" xmlns:xlink="http://www.w3.org/1999/xlink" width="1118" height="393" viewBox="0 0 1118 393"><defs><style>.a,.c{fill:#fff;}.a{stroke:#707070;}.b{clip-path:url(#a);}.d{fill:#1c4966;}</style><clipPath id="a"><rect class="a" width="1118" height="393" transform="translate(401 3157)"/></clipPath></defs><g class="b" transform="translate(-401 -3157)"><g transform="translate(346.204 3124.177)"><path class="c" d="M993.075,129.517h3.518a52.868,52.868,0,0,1,49.218,50.8,54.04,54.04,0,0,1-13.666,37.886,91.478,91.478,0,0,0-22.269,45.711H975.9a92.835,92.835,0,0,0-22.269-46.095,53.788,53.788,0,0,1-13.677-35.552c0-28.911,23.837-52.747,53.131-52.747Zm0-19.529A72.331,72.331,0,0,0,920.8,182.319a71.377,71.377,0,0,0,18.751,48.44A74.666,74.666,0,0,1,958.3,280.371v.395a2.247,2.247,0,0,0,2.345,2.345H1025.5a2.258,2.258,0,0,0,2.345-2.345v-.395c0-17.962,6.247-35.935,18.751-49.218a71.388,71.388,0,0,0,18.751-51.574c-1.567-36.725-30.861-67.191-67.586-69.142a18.862,18.862,0,0,0-4.691-.395Z"/><path class="c" d="M1019.213,361.974a10.039,10.039,0,0,1-7.025-2.74L959.836,306.5a9.447,9.447,0,0,1,0-13.677c3.912-3.518,10.159-3.9,13.677,0l52.769,52.4a9.436,9.436,0,0,1,0,13.677,8.5,8.5,0,0,1-7.069,3.08Z"/><path class="c" d="M1019.213,323.682a10.028,10.028,0,0,1-7.025-2.729L998.149,306.86a9.436,9.436,0,0,1,0-13.666c3.912-3.518,10.159-3.913,13.677,0l14.061,14.061a9.567,9.567,0,0,1-6.641,16.439Z"/><path class="c" d="M980.187,362.752a9.995,9.995,0,0,1-7.036-2.74L959.09,345.952a9.436,9.436,0,0,1,0-13.677c3.9-3.507,10.159-3.9,13.666,0l14.072,14.039a9.578,9.578,0,0,1-6.641,16.439Z"/><path class="c" d="M1172.391,143.194a13.622,13.622,0,0,0-3.9-11.332L1109.5,76.386a13.031,13.031,0,0,0-8.987-3.507H983.31v25h19.529V92.4h84.386v62.468h66.03V313.918H1043.477v19.529H1172.8l-.395-190.253Zm-65.624-7.814V100.617l37.108,34.763Z"/><path class="c" d="M1104.8,240.469a33.184,33.184,0,1,0,23.487,9.72,33.207,33.207,0,0,0-23.487-9.72Zm0,54.7a21.491,21.491,0,0,1,0-42.971v21.48l16.439-13.666a21.009,21.009,0,0,1,5.085,13.666,21.425,21.425,0,0,1-21.524,21.491Z"/><rect class="c" width="15.628" height="35.157" transform="translate(1075.116 196.719)"/><rect class="c" width="15.628" height="27.343" transform="translate(1098.558 204.533)"/><rect class="c" width="15.628" height="17.184" transform="translate(1122 214.298)"/><rect class="c" width="19.529" height="34.774" transform="matrix(0.707, -0.708, 0.708, 0.707, 900.206, 104.651)"/><rect class="c" width="34.774" height="19.529" transform="translate(872.359 171.71)"/><rect class="c" width="19.53" height="34.774" transform="translate(940.226 73.951) rotate(-20.69)"/><rect class="c" width="19.529" height="34.774" transform="translate(877.743 144.719) rotate(-67.32)"/><path class="c" d="M741.582,161.836c12.7,0,23.014-11.463,23.014-25.579V126.032c0-14.127-10.313-25.568-23.014-25.568s-23.014,11.441-23.014,25.568v10.225C718.578,150.372,728.869,161.814,741.582,161.836Zm-13.809-35.8c0-8.472,6.181-15.343,13.809-15.343s13.809,6.871,13.809,15.343v10.225c0,8.482-6.181,15.343-13.809,15.343s-13.809-6.861-13.809-15.343Z"/><path class="d" d="M529.333,161.836A25.6,25.6,0,0,0,554.9,136.257V126.032a25.568,25.568,0,1,0-51.136,0v10.225a25.6,25.6,0,0,0,25.568,25.579Zm-15.343-35.8a15.343,15.343,0,1,1,30.686,0v10.225a15.343,15.343,0,1,1-30.686,0Z"/><path class="d" d="M611.166,349.524V289.687a35.848,35.848,0,0,0-35.8-35.793H554.9V197.629a25.568,25.568,0,1,0-51.136,0V259A35.639,35.639,0,0,0,514.56,284.58H493.529V187.4H483.3V371.52h10.225V294.8h46.029a10.236,10.236,0,0,1,10.236,10.225v66.49h10.225V305.03a20.352,20.352,0,0,0-2.838-10.225h13.063v71.6a5.118,5.118,0,0,0,5.118,5.118h40.911a5.118,5.118,0,0,0,4.263-7.956Zm-30.686,11.77V289.687a5.118,5.118,0,0,0-5.118-5.107h-35.8A25.612,25.612,0,0,1,513.99,259V197.629a15.343,15.343,0,0,1,30.686,0V259a5.118,5.118,0,0,0,5.118,5.118h25.568a25.6,25.6,0,0,1,25.568,25.568v61.372a5.118,5.118,0,0,0,.866,2.838l4.932,7.4Z"/><path class="c" d="M779.939,284.58H758.908A35.639,35.639,0,0,0,769.7,259V197.629a25.568,25.568,0,1,0-51.136,0v56.265H698.106a35.848,35.848,0,0,0-35.8,35.793v59.838l-9.37,14.061a5.107,5.107,0,0,0,1.447,7.08,5.042,5.042,0,0,0,2.816.855h40.911a5.118,5.118,0,0,0,5.118-5.118V294.8h13.063a20.351,20.351,0,0,0-2.838,10.225v66.49h10.225V305.03A10.236,10.236,0,0,1,733.91,294.8h46.029V371.52h10.225V187.4H779.939Zm-46.029,0h-35.8a5.118,5.118,0,0,0-5.118,5.107v71.608h-26.3l4.932-7.4a5.118,5.118,0,0,0,.866-2.838V289.687a25.6,25.6,0,0,1,25.623-25.568h25.568A5.118,5.118,0,0,0,728.792,259V197.629a15.343,15.343,0,0,1,30.686,0V259A25.612,25.612,0,0,1,733.91,284.58Z"/><path class="d" d="M698.106,233.433H655.233l16.79-33.513a5.107,5.107,0,0,0-2.291-6.861,4.975,4.975,0,0,0-2.312-.537H616.273a5.107,5.107,0,0,0-4.57,2.827l-19.047,38.084H575.362v10.225h56.254V371.52h10.236V243.658h56.254Zm-54.3,0H604.1l15.343-30.686h39.705Z"/><path class="c" d="M677.645,156.718a5.216,5.216,0,0,0,1.962-.384,5.14,5.14,0,0,0,3.156-4.734V136.257h5.118a20.439,20.439,0,0,0,20.45-20.45V85.121a20.45,20.45,0,0,0-20.45-20.461H626.509a20.461,20.461,0,0,0-20.461,20.461h10.225a10.236,10.236,0,0,1,10.236-10.236h61.372a10.236,10.236,0,0,1,10.225,10.236v30.686a10.225,10.225,0,0,1-10.225,10.225H677.645a5.118,5.118,0,0,0-5.107,5.118v8.11l-11.694-11.726-7.233,7.233L674,155.216a5.118,5.118,0,0,0,3.649,1.5Z"/><path class="d" d="M565.137,115.807v20.45a20.45,20.45,0,0,0,20.45,20.461h5.118v15.343a5.107,5.107,0,0,0,3.156,4.723,5.019,5.019,0,0,0,1.962.395,5.162,5.162,0,0,0,3.617-1.5l18.96-18.96h8.11a20.45,20.45,0,0,0,20.45-20.461v-20.45a20.45,20.45,0,0,0-20.45-20.461H585.587a20.45,20.45,0,0,0-20.45,20.461Zm71.6,0v20.45a10.236,10.236,0,0,1-10.225,10.236H616.273a5.151,5.151,0,0,0-3.649,1.458L600.9,159.677v-8.11a5.107,5.107,0,0,0-5.107-5.107H585.554a10.236,10.236,0,0,1-10.225-10.236V115.807a10.236,10.236,0,0,1,10.225-10.236h40.922a10.236,10.236,0,0,1,10.258,10.236Z"/><rect class="c" width="10.225" height="10.225" transform="translate(585.587 120.914)"/><rect class="c" width="20.461" height="10.225" transform="translate(606.048 120.914)"/><rect class="d" width="20.461" height="10.225" transform="translate(646.959 85.121)"/><rect class="d" width="10.225" height="10.225" transform="translate(677.645 85.121)"/><rect class="d" width="30.686" height="10.225" transform="translate(657.195 105.571)"/><path class="d" d="M195.875,91.806h0a5.425,5.425,0,0,1-.789-10.784c1.852-.274,3.715-.515,5.578-.723h0a5.48,5.48,0,0,1,1.206,10.784c-1.732.2-3.463.416-5.195.669h0a4.822,4.822,0,0,1-.8.055Z"/><path class="d" d="M77.548,193.563h0a5.59,5.59,0,0,1-1.589-.241h0a5.48,5.48,0,0,1-3.628-6.773h0c1.1-3.606,2.356-7.211,3.748-10.751h0a5.424,5.424,0,1,1,10.106,3.946h0c-1.282,3.288-2.455,6.63-3.485,9.962h0A5.414,5.414,0,0,1,77.548,193.563ZM90.7,163.458h0a5.48,5.48,0,0,1-5.48-5.48,5.337,5.337,0,0,1,.734-2.707c1.885-3.288,3.923-6.5,6.06-9.633h0a5.425,5.425,0,0,1,8.965,6.1h0c-1.984,2.9-3.88,5.907-5.622,8.932h0a5.4,5.4,0,0,1-4.7,2.707Zm19.529-26.412h0a5.48,5.48,0,0,1-3.978-9.118c2.575-2.762,5.271-5.48,8.044-8.033h0a5.425,5.425,0,1,1,7.387,7.946h0c-2.575,2.389-5.1,4.91-7.485,7.474h0a5.4,5.4,0,0,1-3.967,1.732Zm24.9-21.436h0a5.48,5.48,0,0,1-3.058-9.863c3.123-2.126,6.367-4.165,9.633-6.05h0a5.425,5.425,0,0,1,5.425,9.392c-3.036,1.753-6.039,3.649-8.943,5.622h0a5.414,5.414,0,0,1-3.058.942Zm29.042-15.343h0A5.425,5.425,0,0,1,162.2,89.789c3.54-1.392,7.156-2.652,10.751-3.748h0a5.425,5.425,0,0,1,3.178,10.367c-3.288,1.019-6.685,2.192-9.962,3.474h0a5.359,5.359,0,0,1-1.984.373Z"/><path class="d" d="M233.816,382.216h0a5.48,5.48,0,0,1-.636-10.817l2.192-.252h0a5.425,5.425,0,1,1,1.337,10.762h0l-2.192.274h0Zm23.42-4.548h0a5.425,5.425,0,0,1-1.469-10.641c3.343-.943,6.685-2.017,9.94-3.2h0a5.48,5.48,0,1,1,3.693,10.2c-3.5,1.271-7.1,2.422-10.7,3.441h0a5.581,5.581,0,0,1-1.469.2Zm30.083-12.22h0a5.425,5.425,0,0,1-2.586-10.192c3.014-1.633,6.039-3.43,8.987-5.315h0a5.425,5.425,0,1,1,5.852,9.129c-3.167,2.038-6.411,3.956-9.666,5.721h0a5.479,5.479,0,0,1-2.586.658Zm26.642-18.554h0a5.48,5.48,0,0,1-3.573-9.513c2.619-2.29,5.184-4.7,7.606-7.167h0a5.425,5.425,0,0,1,7.672,7.617c-2.608,2.652-5.37,5.25-8.187,7.672h0a5.479,5.479,0,0,1-3.573,1.348Zm21.919-23.957h0a5.48,5.48,0,0,1-4.384-8.625c2.038-2.795,4.011-5.7,5.852-8.658h0a5.425,5.425,0,0,1,9.206,5.732c-1.984,3.189-4.1,6.323-6.291,9.337h0a5.48,5.48,0,0,1-4.384,2.192ZM352.023,294.8h0a5.425,5.425,0,0,1-4.976-7.584c1.381-3.189,2.652-6.466,3.781-9.732h0a5.48,5.48,0,0,1,10.258,3.551c-1.216,3.518-2.6,7.047-4.088,10.488h0a5.48,5.48,0,0,1-4.975,3.288Zm9.48-31.081h0a5.13,5.13,0,0,1-1-.1h0a5.48,5.48,0,0,1-4.384-6.323h0c.625-3.386,1.1-6.861,1.523-10.324h0a5.425,5.425,0,1,1,10.784,1.184c-.417,3.737-.965,7.485-1.655,11.135h0a5.48,5.48,0,0,1-5.326,4.384Z"/><path class="d" d="M363.081,220.391h0a5.414,5.414,0,0,1-5.381-4.833c-.384-3.463-.9-6.937-1.523-10.324h0a5.419,5.419,0,0,1,10.652-1.995c.69,3.649,1.238,7.4,1.655,11.135h0a5.48,5.48,0,0,1-4.8,5.984h0a5.4,5.4,0,0,1-.6.033ZM355.957,188.7h0a5.414,5.414,0,0,1-5.129-3.649c-1.1-3.288-2.4-6.576-3.781-9.732h0A5.425,5.425,0,1,1,357,171.009c1.49,3.441,2.871,6.97,4.088,10.488h0a5.48,5.48,0,0,1-3.343,6.9,5.556,5.556,0,0,1-1.786.3ZM341.93,159.381h0a5.48,5.48,0,0,1-4.614-2.554c-1.841-2.959-3.814-5.863-5.852-8.658h0a5.48,5.48,0,0,1,8.767-6.466h0c2.192,3.014,4.307,6.148,6.291,9.337h0a5.414,5.414,0,0,1-4.592,8.285Zm-20.121-25.5h0a5.48,5.48,0,0,1-3.858-1.611c-2.422-2.466-4.986-4.877-7.606-7.167h0a5.48,5.48,0,0,1,7.145-8.165c2.817,2.466,5.578,5.063,8.187,7.671h0a5.414,5.414,0,0,1-3.869,9.228ZM296.6,113.407h0a5.315,5.315,0,0,1-2.926-.866c-2.948-1.885-5.973-3.682-8.987-5.315h0a5.424,5.424,0,1,1,5.173-9.536c3.287,1.765,6.5,3.683,9.666,5.722h0a5.48,5.48,0,0,1-2.926,9.995ZM267.56,98.973h0a5.578,5.578,0,0,1-1.852-.318c-3.288-1.184-6.576-2.258-9.94-3.2h0A5.425,5.425,0,1,1,258.7,85.011c3.595,1.019,7.2,2.192,10.7,3.441h0a5.425,5.425,0,0,1-1.841,10.521ZM236,91.378h0a4.571,4.571,0,0,1-.669,0l-2.192-.252h0a5.48,5.48,0,0,1,1.271-10.784l2.192.274h0a5.425,5.425,0,0,1-.669,10.806Z"/><path class="d" d="M201.267,382.216h-.592c-3.737-.416-7.485-.964-11.135-1.655h0a5.419,5.419,0,1,1,1.995-10.652c3.386.625,6.861,1.1,10.324,1.523h0a5.425,5.425,0,0,1-.592,10.817Zm-31.694-7.135h0a5.477,5.477,0,0,1-1.775-.3c-3.519-1.217-7.048-2.6-10.489-4.088h0a5.425,5.425,0,1,1,4.307-9.951c3.189,1.381,6.466,2.652,9.732,3.781h0a5.48,5.48,0,0,1-1.775,10.554Zm-29.294-13.995h0a5.36,5.36,0,0,1-2.86-.822c-3.189-1.984-6.323-4.1-9.337-6.291h0a5.48,5.48,0,0,1,6.411-8.767c2.795,2.049,5.7,4.011,8.658,5.852h0a5.48,5.48,0,0,1-2.871,10.028Zm-25.5-20.11h0a5.48,5.48,0,0,1-3.814-1.556c-2.641-2.608-5.239-5.37-7.672-8.187h0a5.48,5.48,0,0,1,8.165-7.145c2.29,2.619,4.7,5.184,7.167,7.606h0a5.425,5.425,0,0,1-3.814,9.283ZM94.25,315.77h0a5.4,5.4,0,0,1-4.57-2.5c-2.006-3.123-3.923-6.411-5.688-9.7h0a5.424,5.424,0,1,1,9.536-5.173c1.632,3.014,3.429,6.039,5.314,8.987h0a5.414,5.414,0,0,1-4.592,8.384Zm-14.4-29.086h0a5.48,5.48,0,0,1-5.1-3.573C73.482,279.6,72.331,276,71.312,272.4h0a5.425,5.425,0,1,1,10.444-2.937c.942,3.343,2.016,6.685,3.2,9.94h0a5.48,5.48,0,0,1-3.288,6.948h0a5.315,5.315,0,0,1-1.852.329Zm-7.606-31.563h0a5.48,5.48,0,0,1-5.37-4.756l-.274-2.192h0A5.48,5.48,0,0,1,77.383,246.9h0l.252,2.192h0a5.48,5.48,0,0,1-4.712,6.05h0a4.708,4.708,0,0,1-.679-.022Z"/><path class="c" d="M228.391,111.894h-21.7a10.872,10.872,0,0,1-10.85-10.85V73.92h0a5.48,5.48,0,0,1,5.414-5.48h32.56a5.48,5.48,0,0,1,5.48,5.414h0v27.19h0a10.872,10.872,0,0,1-10.85,10.85Zm-21.7-32.549v21.71h21.7V79.345Z"/><path class="c" d="M233.816,393.986H201.267a5.48,5.48,0,0,1-5.48-5.414h0V361.437h0a10.872,10.872,0,0,1,10.85-10.85h21.7a10.872,10.872,0,0,1,10.85,10.85v27.124h0a5.48,5.48,0,0,1-5.414,5.425Zm-27.124-10.85h21.7v-21.7h-21.7Z"/><path class="c" d="M87.345,252.94H60.276a5.48,5.48,0,0,1-5.48-5.414h0V214.977h0a5.48,5.48,0,0,1,5.414-5.48H87.345a10.872,10.872,0,0,1,10.85,10.85v21.7h0a10.872,10.872,0,0,1-10.85,10.85Zm-21.7-10.85h21.71v-21.7H65.646Z"/><path class="c" d="M374.862,252.94H347.738a10.872,10.872,0,0,1-10.85-10.85v-21.7h0a10.872,10.872,0,0,1,10.85-10.85h27.124a5.48,5.48,0,0,1,5.425,5.414h0V247.5h0a5.48,5.48,0,0,1-5.414,5.48Zm-27.124-32.549v21.7h21.7v-21.7Z"/><path class="c" d="M233.137,145.09a59.8,59.8,0,0,0-59.717,59.717,60.835,60.835,0,0,0,10.072,33.086l-10.784,10.795-5.041-5.041a3.485,3.485,0,0,0-5.041,0l-35.607,35.618a22.38,22.38,0,0,0,31.65,31.65l35.618-35.607a3.485,3.485,0,0,0,0-5.041l-5.041-5.03,10.795-10.795a58.007,58.007,0,0,0,33.1,10.072,59.728,59.728,0,1,0,0-119.456Zm-79.5,161.1a15.259,15.259,0,0,1-21.579-21.579l33.086-33.1,21.59,21.59Zm30.215-46.029-6.477-6.477,10.072-10.072a54.687,54.687,0,0,0,6.477,6.477Zm49.317-2.521a52.6,52.6,0,0,1-52.517-52.517c0-28.768,23.376-52.868,52.517-52.868a52.6,52.6,0,0,1,52.517,52.517c-.033,29.163-23.76,52.9-52.55,52.9Z"/><path class="c" d="M192.489,193.289a3.649,3.649,0,0,0-4.318,2.882,36.243,36.243,0,0,0-.723,8.987,3.606,3.606,0,1,0,7.2,0,53.473,53.473,0,0,1,.712-7.551,3.474,3.474,0,0,0-2.871-4.318Z"/><path class="c" d="M233.137,159.479c-17.633,0-33.82,10.072-41.01,25.9a3.573,3.573,0,0,0,1.8,4.68,2.192,2.192,0,0,0,1.436.362,3.463,3.463,0,0,0,3.288-2.192,38.522,38.522,0,0,1,34.533-21.919,3.4,3.4,0,0,0,3.595-3.606A3.54,3.54,0,0,0,233.137,159.479Z"/></g></g></svg>