<svg id="Layer_1" data-name="Layer 1" xmlns="http://www.w3.org/2000/svg" viewBox="0 0 1366 768"><defs><style>.cls-1,.cls-8{fill:none;stroke-miterlimit:10;}.cls-1{stroke:#fd5f80;stroke-width:10px;}.cls-2{font-size:20px;}.cls-10,.cls-2{font-family:Roboto-Regular, Roboto;}.cls-3{letter-spacing:-0.01em;}.cls-4{letter-spacing:-0.01em;}.cls-5{letter-spacing:-0.01em;}.cls-6{letter-spacing:-0.02em;}.cls-7{letter-spacing:-0.01em;}.cls-8{stroke:#14b0bf;stroke-width:5px;}.cls-9{fill:#fd5f80;}.cls-10{font-size:26px;}.cls-11{letter-spacing:-0.01em;}.cls-12{letter-spacing:0.01em;}.cls-13{letter-spacing:-0.05em;}.cls-14{letter-spacing:-0.02em;}</style></defs><title>proj4designprocess</title><line class="cls-1" x1="157.5" y1="129.5" x2="157.5" y2="654.5"/><line class="cls-1" x1="1243.5" y1="652.5" x2="152.5" y2="652.5"/><text class="cls-2" transform="translate(66.52 439.62) rotate(-90)">Hours of Sleep</text><text class="cls-2" transform="translate(115 151.67)">8</text><text class="cls-2" transform="translate(115.4 276.73)">6</text><text class="cls-2" transform="translate(115.4 401.73)">4</text><text class="cls-2" transform="translate(115.4 525.73)">2</text><text class="cls-2" transform="translate(115.4 649.73)">0</text><text class="cls-2" transform="translate(229.33 693.44)"><tspan class="cls-3">P</tspan><tspan x="12.51" y="0">anic</tspan></text><text class="cls-2" transform="translate(375.15 693.73)">P<tspan class="cls-4" x="12.62" y="0">r</tspan><tspan x="19.19" y="0">oblem </tspan><tspan class="cls-5" x="79.75" y="0">F</tspan><tspan class="cls-6" x="90.55" y="0">r</tspan><tspan x="96.92" y="0">ame / Critique</tspan></text><text class="cls-2" transform="translate(652.39 693.07)">Resea<tspan class="cls-7" x="54.7" y="0">r</tspan><tspan x="61.28" y="0">ch (Quickly)</tspan></text><text class="cls-2" transform="translate(887.33 694.07)">Ideate</text><text class="cls-2" transform="translate(1028.69 693.07)">Mock</text><text class="cls-2" transform="translate(1145.95 693.07)">Submit</text><line class="cls-8" x1="235" y1="222" x2="459.5" y2="336.5"/><line class="cls-8" x1="737.5" y1="556.5" x2="459.5" y2="336.5"/><line class="cls-8" x1="916.5" y1="612.5" x2="737.5" y2="556.5"/><line class="cls-8" x1="956.5" y1="296.5" x2="916.5" y2="612.5"/><line class="cls-8" x1="1053.5" y1="439.5" x2="956.5" y2="296.5"/><line class="cls-8" x1="1175.5" y1="493.5" x2="1053.5" y2="439.5"/><circle class="cls-9" cx="238.78" cy="225.67" r="11.56"/><circle class="cls-9" cx="459.11" cy="336.89" r="11.56"/><circle class="cls-9" cx="727.11" cy="547.89" r="11.56"/><circle class="cls-9" cx="916.11" cy="611.89" r="11.56"/><circle class="cls-9" cx="958.11" cy="299.89" r="11.56"/><circle class="cls-9" cx="1054.11" cy="439.89" r="11.56"/><circle class="cls-9" cx="1174.11" cy="492.89" r="11.56"/><text class="cls-10" transform="translate(518.67 88.72)">Ite<tspan class="cls-6" x="29.34" y="0">r</tspan><tspan x="37.63" y="0">ating on </tspan><tspan class="cls-3" x="137.55" y="0">A</tspan><tspan x="154.38" y="0">udible in A D</tspan><tspan class="cls-11" x="298.33" y="0">a</tspan><tspan class="cls-12" x="312.28" y="0">y</tspan><tspan class="cls-13" x="324.77" y="0">’</tspan><tspan x="328.54" y="0">s </tspan><tspan class="cls-14" x="348.39" y="0">W</tspan><tspan x="371.06" y="0">ork</tspan></text></svg>