<svg id="Layer_1" data-name="Layer 1" xmlns="http://www.w3.org/2000/svg" viewBox="0 0 1366 768"><defs><style>.cls-1,.cls-3{fill:none;stroke-miterlimit:10;}.cls-1{stroke:#fd5f80;stroke-width:10px;}.cls-2{fill:#fff;}.cls-3{stroke:#14b0bf;stroke-width:5px;}.cls-4{fill:#fd5f80;}</style></defs><title>proj4designprocess</title><line class="cls-1" x1="157.5" y1="129.5" x2="157.5" y2="654.5"/><line class="cls-1" x1="1243.5" y1="652.5" x2="152.5" y2="652.5"/><path class="cls-2" d="M66.52,427v1.88H60v7.17h6.57V438H52.3v-1.88h6.11v-7.17H52.3V427Z"/><path class="cls-2" d="M61.14,424.47a6.15,6.15,0,0,1-2.79-.61,4.55,4.55,0,0,1-1.92-1.7,4.61,4.61,0,0,1-.67-2.48,4.49,4.49,0,0,1,1.49-3.5,5.75,5.75,0,0,1,4-1.33h.12a6.36,6.36,0,0,1,2.77.59A4.49,4.49,0,0,1,66,417.13a4.65,4.65,0,0,1,.68,2.53,4.43,4.43,0,0,1-1.49,3.48,5.71,5.71,0,0,1-3.95,1.33Zm.21-1.82a4.57,4.57,0,0,0,2.83-.81,2.64,2.64,0,0,0,1.06-2.18,2.59,2.59,0,0,0-1.08-2.19,5,5,0,0,0-3-.81,4.52,4.52,0,0,0-2.82.82,2.63,2.63,0,0,0-1.08,2.2,2.58,2.58,0,0,0,1.07,2.15A4.87,4.87,0,0,0,61.35,422.65Z"/><path class="cls-2" d="M65.47,406.06a3.85,3.85,0,0,1,1.24,3.1,3.27,3.27,0,0,1-1,2.57,4.24,4.24,0,0,1-2.9.9H56v-1.81h6.83q2.4,0,2.4-1.95a2.7,2.7,0,0,0-1.54-2.76H56V404.3H66.52V406Z"/><path class="cls-2" d="M57.57,396.45a6.23,6.23,0,0,0-.06.89A2.37,2.37,0,0,0,59,399.75h7.5v1.81H56V399.8l1.22,0a2.81,2.81,0,0,1-1.41-2.52,1.87,1.87,0,0,1,.13-.8Z"/><path class="cls-2" d="M63.72,388.64a1.33,1.33,0,0,0-1.14.55,5.42,5.42,0,0,0-.7,1.93,8.92,8.92,0,0,1-.7,2.17,3.06,3.06,0,0,1-1,1.19,2.33,2.33,0,0,1-1.35.39,2.73,2.73,0,0,1-2.19-1.1,4.29,4.29,0,0,1-.9-2.81,4.4,4.4,0,0,1,.93-2.91,2.91,2.91,0,0,1,2.37-1.12v1.82a1.63,1.63,0,0,0-1.28.63,2.35,2.35,0,0,0-.54,1.58,2.46,2.46,0,0,0,.43,1.55,1.35,1.35,0,0,0,1.12.55,1.1,1.1,0,0,0,1-.51,6.71,6.71,0,0,0,.64-1.87,9.6,9.6,0,0,1,.72-2.2,3.12,3.12,0,0,1,1-1.24,2.47,2.47,0,0,1,1.44-.41A2.7,2.7,0,0,1,65.86,388a4.73,4.73,0,0,1,.85,2.94,5.46,5.46,0,0,1-.44,2.24A3.67,3.67,0,0,1,65,394.68a3,3,0,0,1-1.74.55v-1.8a1.92,1.92,0,0,0,1.44-.73,2.84,2.84,0,0,0,.53-1.79,2.88,2.88,0,0,0-.42-1.65A1.26,1.26,0,0,0,63.72,388.64Z"/><path class="cls-2" d="M61.14,380a6.29,6.29,0,0,1-2.79-.61,4.47,4.47,0,0,1-2.59-4.19,4.47,4.47,0,0,1,1.49-3.49,5.75,5.75,0,0,1,4-1.33h.12a6.22,6.22,0,0,1,2.77.59A4.43,4.43,0,0,1,66,372.67a4.62,4.62,0,0,1,.68,2.52,4.4,4.4,0,0,1-1.49,3.48A5.71,5.71,0,0,1,61.27,380Zm.21-1.82a4.57,4.57,0,0,0,2.83-.81,2.66,2.66,0,0,0,1.06-2.19A2.58,2.58,0,0,0,64.16,373a4.88,4.88,0,0,0-3-.82,4.52,4.52,0,0,0-2.82.83,2.74,2.74,0,0,0,0,4.35A4.87,4.87,0,0,0,61.35,378.19Z"/><path class="cls-2" d="M66.52,367.23H57.35v1.67H56v-1.67H54.87a3.63,3.63,0,0,1-2.63-.9,3.45,3.45,0,0,1-.93-2.57,4.75,4.75,0,0,1,.17-1.24l1.46.09a5.18,5.18,0,0,0-.09,1,1.77,1.77,0,0,0,.51,1.36,2.09,2.09,0,0,0,1.48.48H56v-2.26h1.4v2.26h9.17Z"/><path class="cls-2" d="M60.18,351.76a9,9,0,0,1-1.7,3.51,3.28,3.28,0,0,1-2.5,1.09A3.44,3.44,0,0,1,53.2,355a5.34,5.34,0,0,1-1.1-3.49,5.76,5.76,0,0,1,.57-2.61,4.31,4.31,0,0,1,1.56-1.78,4,4,0,0,1,2.18-.63v1.89a2.58,2.58,0,0,0-2,.82,3.27,3.27,0,0,0-.74,2.31,3.37,3.37,0,0,0,.61,2.16,2,2,0,0,0,1.7.78,1.84,1.84,0,0,0,1.47-.74,7.21,7.21,0,0,0,1.1-2.51,11.59,11.59,0,0,1,1.1-2.77A4.18,4.18,0,0,1,61,347a3.5,3.5,0,0,1,1.89-.49,3.3,3.3,0,0,1,2.76,1.35,5.71,5.71,0,0,1,1,3.6,6.62,6.62,0,0,1-.56,2.74,4.56,4.56,0,0,1-1.54,2,3.8,3.8,0,0,1-2.21.68v-1.88a2.44,2.44,0,0,0,2-.95,4,4,0,0,0,.75-2.55,3.7,3.7,0,0,0-.6-2.27,2,2,0,0,0-1.65-.79,1.93,1.93,0,0,0-1.62.73A8.4,8.4,0,0,0,60.18,351.76Z"/><path class="cls-2" d="M66.52,342.4v1.81h-15V342.4Z"/><path class="cls-2" d="M66.71,335.12a4.62,4.62,0,0,1-1.41,3.5A5.23,5.23,0,0,1,61.53,340H61.2a6.34,6.34,0,0,1-2.81-.6,4.66,4.66,0,0,1-1.93-1.68,4.19,4.19,0,0,1-.7-2.34,4,4,0,0,1,1.35-3.2A5.86,5.86,0,0,1,61,331h.75v7.16a3.75,3.75,0,0,0,2.53-.91,2.86,2.86,0,0,0,1-2.22,3.13,3.13,0,0,0-.39-1.62,4.12,4.12,0,0,0-1-1.17l.86-1.1A4.44,4.44,0,0,1,66.71,335.12Zm-9.47.23a2.43,2.43,0,0,0,.8,1.84,3.83,3.83,0,0,0,2.23.91v-5.29h-.14a3.42,3.42,0,0,0-2.13.74A2.26,2.26,0,0,0,57.24,335.35Z"/><path class="cls-2" d="M66.71,324.53A4.6,4.6,0,0,1,65.3,328a5.23,5.23,0,0,1-3.77,1.35H61.2a6.34,6.34,0,0,1-2.81-.6,4.66,4.66,0,0,1-1.93-1.68,4.19,4.19,0,0,1-.7-2.34,4,4,0,0,1,1.35-3.2A5.92,5.92,0,0,1,61,320.41h.75v7.16a3.76,3.76,0,0,0,2.53-.92,2.86,2.86,0,0,0,1-2.22,3.13,3.13,0,0,0-.39-1.62,4.08,4.08,0,0,0-1-1.16l.86-1.11A4.45,4.45,0,0,1,66.71,324.53Zm-9.47.22a2.43,2.43,0,0,0,.8,1.84,3.91,3.91,0,0,0,2.23.92v-5.3h-.14A3.42,3.42,0,0,0,58,323,2.24,2.24,0,0,0,57.24,324.75Z"/><path class="cls-2" d="M61.35,309.39a6.3,6.3,0,0,1,3.89,1.11,3.53,3.53,0,0,1,1.47,3,3.84,3.84,0,0,1-1.22,3h5.09v1.81H56v-1.65l1.17-.09a3.73,3.73,0,0,1-1.36-3.07,3.61,3.61,0,0,1,1.43-3,6.41,6.41,0,0,1,4-1.11Zm-.2,1.81a4.65,4.65,0,0,0-2.82.76,2.47,2.47,0,0,0-1,2.09,2.67,2.67,0,0,0,1.46,2.46h5A2.66,2.66,0,0,0,65.24,314a2.43,2.43,0,0,0-1-2.06A5,5,0,0,0,61.15,311.2Z"/><path class="cls-2" d="M124.8,141.16a3.24,3.24,0,0,1-.56,1.89,3.72,3.72,0,0,1-1.52,1.3,4.12,4.12,0,0,1,1.77,1.4,3.52,3.52,0,0,1,.65,2.08,3.72,3.72,0,0,1-1.25,2.94,5.46,5.46,0,0,1-6.56,0,3.74,3.74,0,0,1-1.24-2.93,3.62,3.62,0,0,1,.63-2.08,3.9,3.9,0,0,1,1.75-1.41A3.72,3.72,0,0,1,117,143a3.36,3.36,0,0,1-.54-1.88,3.66,3.66,0,0,1,1.15-2.85,4.87,4.87,0,0,1,6.07,0A3.66,3.66,0,0,1,124.8,141.16Zm-1.47,6.63a2.6,2.6,0,0,0-.76-1.94,2.7,2.7,0,0,0-4.67,1.94,2.5,2.5,0,0,0,.72,1.9,2.72,2.72,0,0,0,2,.7,2.77,2.77,0,0,0,2-.7A2.53,2.53,0,0,0,123.33,147.79Zm-2.71-9a2.34,2.34,0,0,0-1.73.66,2.72,2.72,0,0,0,0,3.54,2.58,2.58,0,0,0,3.47,0,2.66,2.66,0,0,0,0-3.52A2.25,2.25,0,0,0,120.62,138.74Z"/><path class="cls-2" d="M123.68,262.5V264h-.34a4.74,4.74,0,0,0-3.36,1.25,5.21,5.21,0,0,0-1.44,3.41,3.85,3.85,0,0,1,3.06-1.29,3.68,3.68,0,0,1,3,1.31,5.72,5.72,0,0,1-.09,6.89,4.13,4.13,0,0,1-3.21,1.32,4.05,4.05,0,0,1-3.31-1.57,6.24,6.24,0,0,1-1.27-4v-.69a9.32,9.32,0,0,1,1.68-6,6.18,6.18,0,0,1,5-2.13Zm-2.38,6.41a3,3,0,0,0-2.79,1.95v.67a4.65,4.65,0,0,0,.79,2.83,2.37,2.37,0,0,0,2,1.07,2.27,2.27,0,0,0,1.92-.89,3.72,3.72,0,0,0,.7-2.36,3.78,3.78,0,0,0-.71-2.37A2.27,2.27,0,0,0,121.3,268.91Z"/><path class="cls-2" d="M124.21,397h2v1.47h-2v3.3H122.4v-3.3h-6.48v-1.06l6.37-9.86h1.92ZM118,397h4.43v-7l-.22.39Z"/><path class="cls-2" d="M125.9,525.73h-9.31v-1.3l4.92-5.46a11.87,11.87,0,0,0,1.51-2,3.44,3.44,0,0,0,.41-1.61,2.53,2.53,0,0,0-.67-1.82,2.35,2.35,0,0,0-1.8-.72,2.77,2.77,0,0,0-2.09.77,2.91,2.91,0,0,0-.75,2.13h-1.81a4.18,4.18,0,0,1,1.27-3.17,4.67,4.67,0,0,1,3.38-1.21,4.54,4.54,0,0,1,3.14,1,3.58,3.58,0,0,1,1.15,2.77c0,1.4-.89,3.06-2.68,5l-3.81,4.13h7.14Z"/><path class="cls-2" d="M125.5,643.67a8.29,8.29,0,0,1-1.08,4.72,4.51,4.51,0,0,1-6.76,0,7.81,7.81,0,0,1-1.13-4.51V641.5a8.12,8.12,0,0,1,1.08-4.66,4.59,4.59,0,0,1,6.78-.05,7.82,7.82,0,0,1,1.11,4.54Zm-1.81-2.47a6.65,6.65,0,0,0-.64-3.35,2.22,2.22,0,0,0-2-1.05,2.17,2.17,0,0,0-2,1.05,6.47,6.47,0,0,0-.66,3.21V644a6.83,6.83,0,0,0,.67,3.41,2.22,2.22,0,0,0,2,1.09,2.19,2.19,0,0,0,2-1,6.43,6.43,0,0,0,.67-3.26Z"/><path class="cls-2" d="M232.86,687.88v5.56H231V679.23h5.25a5.27,5.27,0,0,1,3.66,1.19,4,4,0,0,1,1.32,3.15,4,4,0,0,1-1.3,3.19,5.51,5.51,0,0,1-3.7,1.12Zm0-1.54h3.37a3.37,3.37,0,0,0,2.3-.7,2.59,2.59,0,0,0,.8-2,2.67,2.67,0,0,0-.8-2,3.13,3.13,0,0,0-2.19-.79h-3.48Z"/><path class="cls-2" d="M249.73,693.44a3.65,3.65,0,0,1-.25-1.11,4,4,0,0,1-3,1.31,3.77,3.77,0,0,1-2.56-.88,2.86,2.86,0,0,1-1-2.25,3,3,0,0,1,1.25-2.56,5.93,5.93,0,0,1,3.53-.91h1.76v-.83a2,2,0,0,0-.57-1.51,2.28,2.28,0,0,0-1.67-.56,2.62,2.62,0,0,0-1.62.49,1.44,1.44,0,0,0-.65,1.18h-1.82a2.51,2.51,0,0,1,.56-1.53,4,4,0,0,1,1.53-1.17,5.2,5.2,0,0,1,2.11-.43,4.16,4.16,0,0,1,2.86.92,3.28,3.28,0,0,1,1.08,2.51V691a6,6,0,0,0,.37,2.32v.15Zm-3-1.37a3.22,3.22,0,0,0,1.61-.44,2.79,2.79,0,0,0,1.1-1.14v-2.17H248c-2.21,0-3.32.64-3.32,1.94a1.64,1.64,0,0,0,.57,1.33A2.18,2.18,0,0,0,246.74,692.07Z"/><path class="cls-2" d="M255.8,682.88l.06,1.33a3.83,3.83,0,0,1,3.16-1.53q3.35,0,3.38,3.78v7h-1.81v-7a2.42,2.42,0,0,0-.52-1.69,2.1,2.1,0,0,0-1.6-.54,2.62,2.62,0,0,0-1.54.46,3.2,3.2,0,0,0-1,1.24v7.52h-1.81V682.88Z"/><path class="cls-2" d="M265.13,680.08a1.1,1.1,0,0,1,.27-.75,1.22,1.22,0,0,1,1.6,0,1.1,1.1,0,0,1,.27.75,1,1,0,0,1-.27.73,1.25,1.25,0,0,1-1.6,0A1,1,0,0,1,265.13,680.08Zm2,13.36h-1.81V682.88h1.81Z"/><path class="cls-2" d="M274.22,692.17a2.64,2.64,0,0,0,1.69-.59,2.1,2.1,0,0,0,.8-1.47h1.71a3.35,3.35,0,0,1-.63,1.73,4,4,0,0,1-1.54,1.31,4.69,4.69,0,0,1-5.47-.95,5.73,5.73,0,0,1-1.27-3.94V688a6.35,6.35,0,0,1,.57-2.75,4.27,4.27,0,0,1,1.62-1.86,4.57,4.57,0,0,1,2.51-.67,4.23,4.23,0,0,1,3,1.07,3.82,3.82,0,0,1,1.26,2.76h-1.71a2.51,2.51,0,0,0-.78-1.68,2.42,2.42,0,0,0-1.72-.66,2.55,2.55,0,0,0-2.14,1,4.66,4.66,0,0,0-.75,2.86v.35a4.58,4.58,0,0,0,.75,2.81A2.54,2.54,0,0,0,274.22,692.17Z"/><path class="cls-2" d="M378.67,688.17v5.56H376.8V679.51H382a5.24,5.24,0,0,1,3.66,1.2,4.5,4.5,0,0,1,0,6.34,5.55,5.55,0,0,1-3.71,1.12Zm0-1.54H382a3.36,3.36,0,0,0,2.31-.71,2.59,2.59,0,0,0,.8-2,2.7,2.7,0,0,0-.8-2,3.17,3.17,0,0,0-2.2-.79h-3.48Z"/><path class="cls-2" d="M394.24,684.79a5,5,0,0,0-.89-.07,2.37,2.37,0,0,0-2.41,1.51v7.5h-1.81V683.17h1.76l0,1.22a2.8,2.8,0,0,1,2.52-1.42,1.85,1.85,0,0,1,.8.14Z"/><path class="cls-2" d="M395.22,688.35a6.35,6.35,0,0,1,.61-2.79,4.53,4.53,0,0,1,1.7-1.91A4.65,4.65,0,0,1,400,683a4.45,4.45,0,0,1,3.49,1.5,5.72,5.72,0,0,1,1.33,4v.13a6.22,6.22,0,0,1-.59,2.77,4.48,4.48,0,0,1-1.69,1.91,4.71,4.71,0,0,1-2.52.68,4.44,4.44,0,0,1-3.48-1.5,5.69,5.69,0,0,1-1.34-3.95Zm1.82.22a4.48,4.48,0,0,0,.82,2.82,2.77,2.77,0,0,0,4.37,0,5,5,0,0,0,.81-3,4.47,4.47,0,0,0-.83-2.81,2.75,2.75,0,0,0-4.35,0A4.9,4.9,0,0,0,397,688.57Z"/><path class="cls-2" d="M416.05,688.57a6.3,6.3,0,0,1-1.11,3.89,3.56,3.56,0,0,1-3,1.47,3.67,3.67,0,0,1-3.09-1.42l-.09,1.22h-1.66v-15h1.81v5.6a3.94,3.94,0,0,1,6,.1,6.47,6.47,0,0,1,1.09,4Zm-1.8-.21a4.84,4.84,0,0,0-.72-2.85,2.35,2.35,0,0,0-2-1,2.65,2.65,0,0,0-2.56,1.67v4.57a2.72,2.72,0,0,0,2.58,1.66,2.34,2.34,0,0,0,2-1A5.13,5.13,0,0,0,414.25,688.36Z"/><path class="cls-2" d="M420.29,693.73h-1.8v-15h1.8Z"/><path class="cls-2" d="M427.57,693.93a4.63,4.63,0,0,1-3.5-1.41,5.24,5.24,0,0,1-1.35-3.78v-.33a6.37,6.37,0,0,1,.6-2.81,4.87,4.87,0,0,1,1.68-1.93,4.19,4.19,0,0,1,2.34-.7,4,4,0,0,1,3.21,1.36,5.88,5.88,0,0,1,1.14,3.89V689h-7.16a3.78,3.78,0,0,0,.91,2.52,2.9,2.9,0,0,0,2.23,1,3.19,3.19,0,0,0,1.62-.39,4,4,0,0,0,1.16-1l1.1.86A4.43,4.43,0,0,1,427.57,693.93Zm-.23-9.47a2.39,2.39,0,0,0-1.83.79,3.87,3.87,0,0,0-.92,2.23h5.29v-.13a3.47,3.47,0,0,0-.74-2.14A2.27,2.27,0,0,0,427.34,684.46Z"/><path class="cls-2" d="M435.48,683.17l0,1.17a3.9,3.9,0,0,1,3.13-1.37,3,3,0,0,1,3,1.7,4,4,0,0,1,1.37-1.23,4.08,4.08,0,0,1,2-.47c2.32,0,3.49,1.23,3.53,3.68v7.08h-1.8v-7a2.44,2.44,0,0,0-.52-1.69,2.28,2.28,0,0,0-1.74-.57,2.36,2.36,0,0,0-2.44,2.22v7h-1.82v-6.92A2,2,0,0,0,438,684.5a2.41,2.41,0,0,0-2.43,1.52v7.71h-1.81V683.17Z"/><path class="cls-2" d="M464.38,687.45h-6v6.28h-1.88V679.51h8.81v1.54h-6.93v4.87h6Z"/><path class="cls-2" d="M472.17,684.79a5,5,0,0,0-.89-.07,2.37,2.37,0,0,0-2.41,1.51v7.5h-1.81V683.17h1.76l0,1.22a2.8,2.8,0,0,1,2.52-1.42,1.85,1.85,0,0,1,.8.14Z"/><path class="cls-2" d="M480,693.73a3.73,3.73,0,0,1-.25-1.11,4.05,4.05,0,0,1-3,1.31,3.71,3.71,0,0,1-2.56-.89,2.84,2.84,0,0,1-1-2.24,3,3,0,0,1,1.26-2.56,5.91,5.91,0,0,1,3.53-.91h1.76v-.83a2,2,0,0,0-.57-1.51,2.25,2.25,0,0,0-1.67-.56,2.62,2.62,0,0,0-1.62.49,1.41,1.41,0,0,0-.65,1.18h-1.82a2.51,2.51,0,0,1,.56-1.53,3.92,3.92,0,0,1,1.52-1.17,5.28,5.28,0,0,1,2.12-.43,4.21,4.21,0,0,1,2.86.91,3.28,3.28,0,0,1,1.07,2.52v4.86a6.15,6.15,0,0,0,.37,2.32v.15Zm-3-1.37a3.17,3.17,0,0,0,1.61-.44,2.72,2.72,0,0,0,1.11-1.15v-2.16h-1.42c-2.21,0-3.32.64-3.32,1.94a1.64,1.64,0,0,0,.57,1.33A2.15,2.15,0,0,0,477,692.36Z"/><path class="cls-2" d="M486,683.17l0,1.17A3.92,3.92,0,0,1,489.2,683a3,3,0,0,1,3,1.7,4,4,0,0,1,1.37-1.23,4.08,4.08,0,0,1,2-.47q3.46,0,3.53,3.68v7.08h-1.81v-7a2.44,2.44,0,0,0-.51-1.69,2.28,2.28,0,0,0-1.74-.57,2.36,2.36,0,0,0-2.44,2.22v7H490.8v-6.92a2,2,0,0,0-2.26-2.31,2.43,2.43,0,0,0-2.43,1.52v7.71h-1.8V683.17Z"/><path class="cls-2" d="M506.23,693.93a4.63,4.63,0,0,1-3.5-1.41,5.27,5.27,0,0,1-1.34-3.78v-.33a6.37,6.37,0,0,1,.6-2.81,4.72,4.72,0,0,1,1.68-1.93A4.19,4.19,0,0,1,506,683a3.94,3.94,0,0,1,3.2,1.36,5.88,5.88,0,0,1,1.14,3.89V689h-7.16a3.73,3.73,0,0,0,.92,2.52,2.86,2.86,0,0,0,2.22,1,3.13,3.13,0,0,0,1.62-.39,4,4,0,0,0,1.16-1l1.1.86A4.43,4.43,0,0,1,506.23,693.93Zm-.22-9.47a2.41,2.41,0,0,0-1.84.79,3.87,3.87,0,0,0-.92,2.23h5.29v-.13a3.41,3.41,0,0,0-.74-2.14A2.27,2.27,0,0,0,506,684.46Z"/><path class="cls-2" d="M517.75,695H516.2l5.94-15.44h1.54Z"/><path class="cls-2" d="M541.33,689.22a5.2,5.2,0,0,1-1.67,3.48,5.42,5.42,0,0,1-3.72,1.23,5,5,0,0,1-4-1.81,7.26,7.26,0,0,1-1.52-4.83v-1.37a8.18,8.18,0,0,1,.71-3.49,5.21,5.21,0,0,1,2-2.3,5.52,5.52,0,0,1,3-.81,5.18,5.18,0,0,1,3.64,1.26,5.32,5.32,0,0,1,1.59,3.5h-1.89a4,4,0,0,0-1.06-2.46,3.19,3.19,0,0,0-2.28-.77,3.37,3.37,0,0,0-2.81,1.33,6.12,6.12,0,0,0-1,3.78v1.38a6.31,6.31,0,0,0,1,3.69,3.14,3.14,0,0,0,2.71,1.37,3.59,3.59,0,0,0,2.39-.71,3.91,3.91,0,0,0,1.11-2.47Z"/><path class="cls-2" d="M548.71,684.79a4.94,4.94,0,0,0-.89-.07,2.38,2.38,0,0,0-2.41,1.51v7.5H543.6V683.17h1.76l0,1.22a2.8,2.8,0,0,1,2.52-1.42,1.85,1.85,0,0,1,.8.14Z"/><path class="cls-2" d="M550.38,680.36a1.07,1.07,0,0,1,.27-.74,1,1,0,0,1,.79-.3,1,1,0,0,1,.81.3,1.07,1.07,0,0,1,.27.74,1.05,1.05,0,0,1-.27.74,1.08,1.08,0,0,1-.81.29,1,1,0,0,1-.79-.29A1.05,1.05,0,0,1,550.38,680.36Zm2,13.37h-1.8V683.17h1.8Z"/><path class="cls-2" d="M557.68,680.61v2.56h2v1.39h-2v6.56a1.45,1.45,0,0,0,.26,1,1.1,1.1,0,0,0,.9.32,4.32,4.32,0,0,0,.86-.12v1.45a5.3,5.3,0,0,1-1.39.2,2.28,2.28,0,0,1-1.83-.73,3.16,3.16,0,0,1-.61-2.08v-6.56h-1.93v-1.39h1.93v-2.56Z"/><path class="cls-2" d="M561.77,680.36a1.07,1.07,0,0,1,.27-.74,1,1,0,0,1,.79-.3,1,1,0,0,1,.8.3,1.08,1.08,0,0,1,.28.74,1,1,0,0,1-1.08,1,1,1,0,0,1-.79-.29A1.05,1.05,0,0,1,561.77,680.36Zm2,13.37h-1.81V683.17h1.81Z"/><path class="cls-2" d="M566.17,688.36a6.22,6.22,0,0,1,1.14-3.94,3.74,3.74,0,0,1,3.07-1.45,3.7,3.7,0,0,1,3,1.26l.08-1.06h1.66V697.8h-1.81v-5a3.8,3.8,0,0,1-2.91,1.17,3.65,3.65,0,0,1-3.05-1.49,6.33,6.33,0,0,1-1.14-4Zm1.81.21a4.71,4.71,0,0,0,.76,2.85,2.45,2.45,0,0,0,2.07,1,2.71,2.71,0,0,0,2.46-1.42v-5.18a2.71,2.71,0,0,0-2.44-1.39,2.44,2.44,0,0,0-2.08,1A5.13,5.13,0,0,0,568,688.57Z"/><path class="cls-2" d="M584.5,692.69a3.81,3.81,0,0,1-3.09,1.24,3.31,3.31,0,0,1-2.58-1,4.29,4.29,0,0,1-.89-2.91v-6.87h1.81V690c0,1.6.65,2.41,2,2.41a2.7,2.7,0,0,0,2.75-1.55v-7.68h1.81v10.56h-1.72Z"/><path class="cls-2" d="M593.39,693.93a4.63,4.63,0,0,1-3.5-1.41,5.24,5.24,0,0,1-1.35-3.78v-.33a6.24,6.24,0,0,1,.61-2.81,4.77,4.77,0,0,1,1.67-1.93,4.19,4.19,0,0,1,2.34-.7,4,4,0,0,1,3.21,1.36,5.88,5.88,0,0,1,1.14,3.89V689h-7.16a3.78,3.78,0,0,0,.91,2.52,2.9,2.9,0,0,0,2.23,1,3.19,3.19,0,0,0,1.62-.39,4,4,0,0,0,1.16-1l1.1.86A4.43,4.43,0,0,1,593.39,693.93Zm-.23-9.47a2.39,2.39,0,0,0-1.83.79,3.87,3.87,0,0,0-.92,2.23h5.29v-.13a3.47,3.47,0,0,0-.74-2.14A2.27,2.27,0,0,0,593.16,684.46Z"/><path class="cls-2" d="M659.25,687.32h-3.34v5.75H654V678.85h4.71a5.55,5.55,0,0,1,3.69,1.09,3.92,3.92,0,0,1,1.3,3.19,3.82,3.82,0,0,1-.72,2.31,4.34,4.34,0,0,1-2,1.48l3.34,6v.12h-2Zm-3.34-1.54h2.88a3.27,3.27,0,0,0,2.23-.72,2.45,2.45,0,0,0,.82-1.94,2.58,2.58,0,0,0-.78-2,3.37,3.37,0,0,0-2.27-.72h-2.88Z"/><path class="cls-2" d="M670.46,693.26a4.62,4.62,0,0,1-3.5-1.41,5.23,5.23,0,0,1-1.35-3.77v-.33a6.34,6.34,0,0,1,.6-2.81,4.68,4.68,0,0,1,1.68-1.94,4.26,4.26,0,0,1,2.34-.69,4,4,0,0,1,3.2,1.35,5.84,5.84,0,0,1,1.15,3.89v.75h-7.16a3.77,3.77,0,0,0,.91,2.53,2.86,2.86,0,0,0,2.22,1,3.13,3.13,0,0,0,1.62-.39,4.12,4.12,0,0,0,1.17-1l1.1.86A4.44,4.44,0,0,1,670.46,693.26Zm-.23-9.47a2.43,2.43,0,0,0-1.84.8,3.83,3.83,0,0,0-.91,2.23h5.29v-.14a3.42,3.42,0,0,0-.74-2.13A2.26,2.26,0,0,0,670.23,683.79Z"/><path class="cls-2" d="M682.82,690.26a1.34,1.34,0,0,0-.55-1.13,5.23,5.23,0,0,0-1.93-.7,9.37,9.37,0,0,1-2.17-.7,3.17,3.17,0,0,1-1.2-1,2.4,2.4,0,0,1-.38-1.35,2.74,2.74,0,0,1,1.1-2.2,4.31,4.31,0,0,1,2.8-.89,4.48,4.48,0,0,1,2.92.92,2.94,2.94,0,0,1,1.12,2.38h-1.82a1.63,1.63,0,0,0-.63-1.28,2.36,2.36,0,0,0-1.59-.54,2.45,2.45,0,0,0-1.54.43,1.36,1.36,0,0,0-.56,1.12,1.11,1.11,0,0,0,.52,1,6.46,6.46,0,0,0,1.87.63,10.15,10.15,0,0,1,2.19.73,3.16,3.16,0,0,1,1.25,1,2.47,2.47,0,0,1,.41,1.44,2.7,2.7,0,0,1-1.14,2.27,4.73,4.73,0,0,1-2.94.85,5.3,5.3,0,0,1-2.24-.45,3.65,3.65,0,0,1-1.53-1.25,3,3,0,0,1-.55-1.74H678a1.92,1.92,0,0,0,.73,1.44,2.84,2.84,0,0,0,1.79.53,2.9,2.9,0,0,0,1.65-.42A1.27,1.27,0,0,0,682.82,690.26Z"/><path class="cls-2" d="M691.36,693.26a4.61,4.61,0,0,1-3.49-1.41,5.23,5.23,0,0,1-1.35-3.77v-.33a6.34,6.34,0,0,1,.6-2.81A4.68,4.68,0,0,1,688.8,683a4.26,4.26,0,0,1,2.34-.69,4,4,0,0,1,3.2,1.35,5.9,5.9,0,0,1,1.14,3.89v.75h-7.15a3.77,3.77,0,0,0,.91,2.53,2.86,2.86,0,0,0,2.22,1,3.13,3.13,0,0,0,1.62-.39,4,4,0,0,0,1.16-1l1.11.86A4.45,4.45,0,0,1,691.36,693.26Zm-.22-9.47a2.43,2.43,0,0,0-1.84.8,3.91,3.91,0,0,0-.92,2.23h5.3v-.14a3.42,3.42,0,0,0-.74-2.13A2.28,2.28,0,0,0,691.14,683.79Z"/><path class="cls-2" d="M704.1,693.07a3.74,3.74,0,0,1-.26-1.12,4,4,0,0,1-3,1.31,3.73,3.73,0,0,1-2.57-.88,2.89,2.89,0,0,1-1-2.24,3,3,0,0,1,1.26-2.57,6,6,0,0,1,3.53-.91h1.75v-.83a2,2,0,0,0-.56-1.51,2.31,2.31,0,0,0-1.67-.56,2.58,2.58,0,0,0-1.62.49,1.43,1.43,0,0,0-.66,1.18h-1.81a2.45,2.45,0,0,1,.56-1.53,3.74,3.74,0,0,1,1.52-1.16,5.09,5.09,0,0,1,2.12-.43,4.18,4.18,0,0,1,2.86.91,3.27,3.27,0,0,1,1.07,2.51v4.87a6.05,6.05,0,0,0,.37,2.31v.16Zm-3-1.38a3.2,3.2,0,0,0,1.61-.44,2.57,2.57,0,0,0,1.1-1.14v-2.17H702.4c-2.21,0-3.32.65-3.32,1.94a1.66,1.66,0,0,0,.56,1.33A2.19,2.19,0,0,0,701.1,691.69Z"/><path class="cls-2" d="M713.56,684.12a6.06,6.06,0,0,0-.89-.07,2.38,2.38,0,0,0-2.41,1.52v7.5h-1.81V682.5h1.76l0,1.22a2.81,2.81,0,0,1,2.52-1.41,1.87,1.87,0,0,1,.8.13Z"/><path class="cls-2" d="M719.27,691.79a2.6,2.6,0,0,0,1.69-.59,2,2,0,0,0,.8-1.46h1.71a3.31,3.31,0,0,1-.62,1.73,4.17,4.17,0,0,1-1.54,1.3,4.69,4.69,0,0,1-5.47-.95,5.73,5.73,0,0,1-1.27-3.94v-.3a6.53,6.53,0,0,1,.56-2.75,4.29,4.29,0,0,1,1.63-1.86,4.64,4.64,0,0,1,2.5-.66,4.25,4.25,0,0,1,3,1.06,3.81,3.81,0,0,1,1.25,2.76h-1.71a2.5,2.5,0,0,0-.77-1.68,2.43,2.43,0,0,0-1.73-.66,2.53,2.53,0,0,0-2.13,1,4.7,4.7,0,0,0-.76,2.87V688a4.5,4.5,0,0,0,.76,2.81A2.52,2.52,0,0,0,719.27,691.79Z"/><path class="cls-2" d="M727.31,683.78a3.84,3.84,0,0,1,3.13-1.47q3.34,0,3.37,3.77v7H732v-7a2.44,2.44,0,0,0-.52-1.69,2.1,2.1,0,0,0-1.6-.55,2.6,2.6,0,0,0-1.54.47,3.12,3.12,0,0,0-1,1.23v7.53H725.5v-15h1.81Z"/><path class="cls-2" d="M741.4,687.3a15.19,15.19,0,0,1,.59-4.24,12.12,12.12,0,0,1,1.77-3.69,7.52,7.52,0,0,1,2.43-2.35l.37,1.19a7.85,7.85,0,0,0-2.34,3.34,14.52,14.52,0,0,0-1,5v.83a14.54,14.54,0,0,0,1.38,6.55,7.77,7.77,0,0,0,2,2.59l-.37,1.11a7.72,7.72,0,0,1-2.48-2.42A13.57,13.57,0,0,1,741.4,687.3Z"/><path class="cls-2" d="M759.45,686.42a8.75,8.75,0,0,1-.66,3.55A5.43,5.43,0,0,1,757,692.3l2.54,2-1.28,1.18-3-2.38a6.45,6.45,0,0,1-1.48.17,5.29,5.29,0,0,1-5-3.18,8.5,8.5,0,0,1-.74-3.54v-1a8.57,8.57,0,0,1,.72-3.62,5.34,5.34,0,0,1,2-2.41,5.41,5.41,0,0,1,3-.84,5.54,5.54,0,0,1,3,.83,5.4,5.4,0,0,1,2,2.39,8.92,8.92,0,0,1,.7,3.64Zm-1.88-.92a6.44,6.44,0,0,0-1-3.87,3.6,3.6,0,0,0-5.64,0,6.23,6.23,0,0,0-1,3.75v1a6.41,6.41,0,0,0,1,3.84,3.61,3.61,0,0,0,5.65.09,6.39,6.39,0,0,0,1-3.8Z"/><path class="cls-2" d="M768.58,692a3.82,3.82,0,0,1-3.1,1.24,3.27,3.27,0,0,1-2.57-1,4.19,4.19,0,0,1-.89-2.9V682.5h1.8v6.83c0,1.6.66,2.4,2,2.4a2.7,2.7,0,0,0,2.75-1.54V682.5h1.81v10.57h-1.72Z"/><path class="cls-2" d="M773.09,679.7a1.07,1.07,0,0,1,.27-.74,1,1,0,0,1,.8-.31,1,1,0,0,1,.8.31,1.07,1.07,0,0,1,.27.74,1,1,0,0,1-1.07,1,1,1,0,0,1-.8-.29A1,1,0,0,1,773.09,679.7ZM775,693.07h-1.8V682.5H775Z"/><path class="cls-2" d="M782.17,691.79a2.6,2.6,0,0,0,1.69-.59,2,2,0,0,0,.8-1.46h1.71a3.31,3.31,0,0,1-.62,1.73,4.17,4.17,0,0,1-1.54,1.3,4.69,4.69,0,0,1-5.47-.95,5.73,5.73,0,0,1-1.27-3.94v-.3a6.53,6.53,0,0,1,.56-2.75,4.29,4.29,0,0,1,1.63-1.86,4.64,4.64,0,0,1,2.5-.66,4.25,4.25,0,0,1,3,1.06,3.81,3.81,0,0,1,1.25,2.76h-1.71a2.5,2.5,0,0,0-.77-1.68,2.43,2.43,0,0,0-1.73-.66,2.54,2.54,0,0,0-2.13,1,4.7,4.7,0,0,0-.76,2.87V688a4.5,4.5,0,0,0,.76,2.81A2.52,2.52,0,0,0,782.17,691.79Z"/><path class="cls-2" d="M791.35,688.17l-1.13,1.19v3.71h-1.81v-15h1.81v9.07l1-1.16,3.29-3.48h2.2l-4.12,4.42,4.59,6.15H795Z"/><path class="cls-2" d="M800.5,693.07h-1.8v-15h1.8Z"/><path class="cls-2" d="M806.85,690.42l2.46-7.92h1.94L807,694.7c-.66,1.76-1.7,2.63-3.14,2.63l-.34,0-.67-.13v-1.47l.49,0a2.4,2.4,0,0,0,1.43-.37,2.7,2.7,0,0,0,.84-1.36L806,693l-3.77-10.45h2Z"/><path class="cls-2" d="M817,687.39a15.12,15.12,0,0,1-.57,4.18,12.35,12.35,0,0,1-1.75,3.68,7.76,7.76,0,0,1-2.47,2.41l-.38-1.11a7.83,7.83,0,0,0,2.42-3.58,15.33,15.33,0,0,0,.93-5.38v-.31a16,16,0,0,0-.43-3.82,12.35,12.35,0,0,0-1.2-3.16,7.2,7.2,0,0,0-1.72-2.17l.38-1.11a7.66,7.66,0,0,1,2.46,2.39,12.36,12.36,0,0,1,1.75,3.68A15.68,15.68,0,0,1,817,687.39Z"/><path class="cls-2" d="M891,694.07h-1.88V679.85H891Z"/><path class="cls-2" d="M893.69,688.7a6.26,6.26,0,0,1,1.15-3.92,3.92,3.92,0,0,1,6-.21v-5.5h1.81v15H901l-.09-1.14a3.67,3.67,0,0,1-3,1.33,3.61,3.61,0,0,1-3-1.5,6.29,6.29,0,0,1-1.16-3.93Zm1.81.2a4.69,4.69,0,0,0,.74,2.81,2.4,2.4,0,0,0,2,1,2.65,2.65,0,0,0,2.51-1.54v-4.86a2.66,2.66,0,0,0-2.49-1.49,2.43,2.43,0,0,0-2.07,1A5.22,5.22,0,0,0,895.5,688.9Z"/><path class="cls-2" d="M909.8,694.26a4.62,4.62,0,0,1-3.5-1.41,5.23,5.23,0,0,1-1.35-3.77v-.34a6.33,6.33,0,0,1,.6-2.8,4.68,4.68,0,0,1,1.68-1.94,4.27,4.27,0,0,1,2.34-.7,4,4,0,0,1,3.2,1.36,5.84,5.84,0,0,1,1.15,3.89v.75h-7.16a3.82,3.82,0,0,0,.91,2.53,2.88,2.88,0,0,0,2.22,1,3.13,3.13,0,0,0,1.62-.39,4.12,4.12,0,0,0,1.17-1l1.1.86A4.43,4.43,0,0,1,909.8,694.26Zm-.23-9.47a2.39,2.39,0,0,0-1.83.79,3.83,3.83,0,0,0-.92,2.24h5.29v-.14a3.42,3.42,0,0,0-.74-2.13A2.25,2.25,0,0,0,909.57,684.79Z"/><path class="cls-2" d="M922.53,694.07a3.81,3.81,0,0,1-.25-1.12,4,4,0,0,1-3,1.31,3.7,3.7,0,0,1-2.56-.88,2.86,2.86,0,0,1-1-2.24,3,3,0,0,1,1.26-2.57,5.91,5.91,0,0,1,3.53-.91h1.76v-.83a2,2,0,0,0-.57-1.51,2.29,2.29,0,0,0-1.67-.56,2.62,2.62,0,0,0-1.62.49,1.42,1.42,0,0,0-.65,1.18h-1.82a2.51,2.51,0,0,1,.56-1.53,3.92,3.92,0,0,1,1.52-1.17,5.28,5.28,0,0,1,2.12-.43,4.16,4.16,0,0,1,2.86.92,3.27,3.27,0,0,1,1.07,2.51v4.87a6.05,6.05,0,0,0,.37,2.31v.16Zm-3-1.38a3.17,3.17,0,0,0,1.61-.44,2.65,2.65,0,0,0,1.11-1.14v-2.17h-1.42c-2.21,0-3.32.65-3.32,1.94a1.64,1.64,0,0,0,.57,1.33A2.17,2.17,0,0,0,919.53,692.69Z"/><path class="cls-2" d="M929.34,680.94v2.56h2v1.4h-2v6.56a1.44,1.44,0,0,0,.26.95,1.13,1.13,0,0,0,.9.32,4.32,4.32,0,0,0,.86-.12v1.46a5.28,5.28,0,0,1-1.39.19,2.24,2.24,0,0,1-1.82-.73,3.15,3.15,0,0,1-.62-2.08V684.9h-1.92v-1.4h1.92v-2.56Z"/><path class="cls-2" d="M937.8,694.26a4.61,4.61,0,0,1-3.49-1.41,5.23,5.23,0,0,1-1.35-3.77v-.34a6.33,6.33,0,0,1,.6-2.8,4.68,4.68,0,0,1,1.68-1.94,4.27,4.27,0,0,1,2.34-.7,4,4,0,0,1,3.2,1.36,5.9,5.9,0,0,1,1.14,3.89v.75h-7.15a3.77,3.77,0,0,0,.91,2.53,2.86,2.86,0,0,0,2.22,1,3.13,3.13,0,0,0,1.62-.39,4,4,0,0,0,1.16-1l1.11.86A4.44,4.44,0,0,1,937.8,694.26Zm-.22-9.47a2.42,2.42,0,0,0-1.84.79,3.89,3.89,0,0,0-.91,2.24h5.29v-.14a3.42,3.42,0,0,0-.74-2.13A2.28,2.28,0,0,0,937.58,684.79Z"/><path class="cls-2" d="M1032.76,678.85l4.65,11.6,4.65-11.6h2.43v14.22h-1.87v-5.54l.17-6-4.66,11.52h-1.44L1032,681.58l.19,5.95v5.54h-1.88V678.85Z"/><path class="cls-2" d="M1047,687.69a6.36,6.36,0,0,1,.61-2.8,4.48,4.48,0,0,1,4.19-2.58,4.44,4.44,0,0,1,3.49,1.49,5.74,5.74,0,0,1,1.33,4v.13a6.36,6.36,0,0,1-.59,2.77,4.49,4.49,0,0,1-1.69,1.91,4.62,4.62,0,0,1-2.52.68,4.47,4.47,0,0,1-3.49-1.49,5.78,5.78,0,0,1-1.33-4Zm1.82.21a4.54,4.54,0,0,0,.81,2.82,2.62,2.62,0,0,0,2.19,1.07,2.59,2.59,0,0,0,2.18-1.08,5,5,0,0,0,.81-3,4.52,4.52,0,0,0-.82-2.82,2.62,2.62,0,0,0-2.19-1.08,2.57,2.57,0,0,0-2.16,1.06A4.9,4.9,0,0,0,1048.86,687.9Z"/><path class="cls-2" d="M1063.16,691.79a2.6,2.6,0,0,0,1.69-.59,2,2,0,0,0,.8-1.46h1.71a3.31,3.31,0,0,1-.62,1.73,4.17,4.17,0,0,1-1.54,1.3,4.69,4.69,0,0,1-5.47-.95,5.73,5.73,0,0,1-1.27-3.94v-.3a6.53,6.53,0,0,1,.56-2.75,4.29,4.29,0,0,1,1.63-1.86,4.64,4.64,0,0,1,2.5-.66,4.25,4.25,0,0,1,3,1.06,3.81,3.81,0,0,1,1.25,2.76h-1.71a2.5,2.5,0,0,0-.77-1.68,2.43,2.43,0,0,0-1.73-.66,2.54,2.54,0,0,0-2.13,1,4.7,4.7,0,0,0-.76,2.87V688a4.5,4.5,0,0,0,.76,2.81A2.52,2.52,0,0,0,1063.16,691.79Z"/><path class="cls-2" d="M1072.34,688.17l-1.13,1.19v3.71h-1.81v-15h1.81v9.07l1-1.16,3.29-3.48h2.2l-4.12,4.42,4.59,6.15H1076Z"/><path class="cls-2" d="M1151.79,686.73a8.67,8.67,0,0,1-3.51-1.71,3.25,3.25,0,0,1-1.1-2.49,3.45,3.45,0,0,1,1.34-2.78,5.36,5.36,0,0,1,3.49-1.1,5.83,5.83,0,0,1,2.62.57,4.35,4.35,0,0,1,1.77,1.56A4,4,0,0,1,1157,683h-1.88a2.58,2.58,0,0,0-.82-2,3.32,3.32,0,0,0-2.32-.74,3.4,3.4,0,0,0-2.16.61,2,2,0,0,0-.78,1.69,1.84,1.84,0,0,0,.74,1.48,7.4,7.4,0,0,0,2.51,1.1,11.69,11.69,0,0,1,2.78,1.1,4.18,4.18,0,0,1,1.48,1.4,3.58,3.58,0,0,1,.48,1.88,3.31,3.31,0,0,1-1.35,2.77,5.67,5.67,0,0,1-3.6,1,6.7,6.7,0,0,1-2.73-.56,4.57,4.57,0,0,1-2-1.54,3.74,3.74,0,0,1-.69-2.21h1.89a2.44,2.44,0,0,0,1,2,4,4,0,0,0,2.54.75,3.66,3.66,0,0,0,2.28-.61,2,2,0,0,0,.79-1.65,2,2,0,0,0-.73-1.61A8.51,8.51,0,0,0,1151.79,686.73Z"/><path class="cls-2" d="M1165.71,692a3.85,3.85,0,0,1-3.1,1.24,3.29,3.29,0,0,1-2.57-1,4.24,4.24,0,0,1-.9-2.9V682.5H1161v6.83q0,2.4,2,2.4a2.73,2.73,0,0,0,2.76-1.54V682.5h1.8v10.57h-1.72Z"/><path class="cls-2" d="M1179.15,687.9a6.3,6.3,0,0,1-1.11,3.89,3.56,3.56,0,0,1-3,1.47,3.67,3.67,0,0,1-3.09-1.41l-.09,1.22h-1.66v-15h1.8v5.59a3.69,3.69,0,0,1,3-1.36,3.58,3.58,0,0,1,3,1.46,6.42,6.42,0,0,1,1.1,4Zm-1.8-.2a4.85,4.85,0,0,0-.72-2.86,2.35,2.35,0,0,0-2.05-1,2.66,2.66,0,0,0-2.57,1.66v4.57a2.75,2.75,0,0,0,2.59,1.66,2.34,2.34,0,0,0,2-1A5.12,5.12,0,0,0,1177.35,687.7Z"/><path class="cls-2" d="M1183.13,682.5l0,1.17a3.9,3.9,0,0,1,3.13-1.37,3,3,0,0,1,3,1.7,4.17,4.17,0,0,1,1.37-1.23,4.08,4.08,0,0,1,2-.47c2.32,0,3.49,1.23,3.53,3.69v7.08h-1.8v-7a2.44,2.44,0,0,0-.52-1.69,2.31,2.31,0,0,0-1.74-.56,2.39,2.39,0,0,0-1.67.6,2.44,2.44,0,0,0-.77,1.61v7h-1.82v-6.93a2,2,0,0,0-2.25-2.3,2.42,2.42,0,0,0-2.44,1.51v7.72h-1.8V682.5Z"/><path class="cls-2" d="M1199,679.7a1.05,1.05,0,0,1,.27-.74,1,1,0,0,1,.79-.31,1,1,0,0,1,.8.31,1.1,1.1,0,0,1,0,1.47,1,1,0,0,1-.8.29,1,1,0,0,1-.79-.29A1,1,0,0,1,1199,679.7Zm2,13.37h-1.81V682.5h1.81Z"/><path class="cls-2" d="M1206.26,679.94v2.56h2v1.4h-2v6.56a1.44,1.44,0,0,0,.27.95,1.09,1.09,0,0,0,.89.32,4.23,4.23,0,0,0,.86-.12v1.46a5.15,5.15,0,0,1-1.38.19,2.25,2.25,0,0,1-1.83-.73,3.15,3.15,0,0,1-.61-2.08V683.9h-1.93v-1.4h1.93v-2.56Z"/><line class="cls-3" x1="235" y1="222" x2="459.5" y2="336.5"/><line class="cls-3" x1="737.5" y1="556.5" x2="459.5" y2="336.5"/><line class="cls-3" x1="916.5" y1="612.5" x2="737.5" y2="556.5"/><line class="cls-3" x1="956.5" y1="296.5" x2="916.5" y2="612.5"/><line class="cls-3" x1="1053.5" y1="439.5" x2="956.5" y2="296.5"/><line class="cls-3" x1="1175.5" y1="493.5" x2="1053.5" y2="439.5"/><circle class="cls-4" cx="238.78" cy="225.67" r="11.56"/><circle class="cls-4" cx="459.11" cy="336.89" r="11.56"/><circle class="cls-4" cx="729.11" cy="550.89" r="11.56"/><circle class="cls-4" cx="916.11" cy="611.89" r="11.56"/><circle class="cls-4" cx="959.11" cy="300.89" r="11.56"/><circle class="cls-4" cx="1054.11" cy="439.89" r="11.56"/><circle class="cls-4" cx="1174.11" cy="492.89" r="11.56"/><path class="cls-2" d="M523.43,88.72H521V70.24h2.44Z"/><path class="cls-2" d="M530.7,71.66V75h2.57V76.8H530.7v8.53a2,2,0,0,0,.34,1.24,1.43,1.43,0,0,0,1.17.41,5.76,5.76,0,0,0,1.12-.15v1.89a6.81,6.81,0,0,1-1.8.26,2.93,2.93,0,0,1-2.38-1,4.08,4.08,0,0,1-.8-2.7V76.8h-2.5V75h2.5V71.66Z"/><path class="cls-2" d="M541.71,89a6,6,0,0,1-4.55-1.84,6.84,6.84,0,0,1-1.75-4.91V81.8a8.26,8.26,0,0,1,.78-3.65,6,6,0,0,1,2.19-2.51,5.42,5.42,0,0,1,3-.91,5.14,5.14,0,0,1,4.16,1.77,7.63,7.63,0,0,1,1.49,5v1h-9.31A4.85,4.85,0,0,0,539,85.81a3.73,3.73,0,0,0,2.89,1.25,4,4,0,0,0,2.1-.51,5.34,5.34,0,0,0,1.51-1.34l1.44,1.11A5.77,5.77,0,0,1,541.71,89Zm-.29-12.32a3.14,3.14,0,0,0-2.39,1,5,5,0,0,0-1.19,2.9h6.88v-.18a4.44,4.44,0,0,0-1-2.77A2.92,2.92,0,0,0,541.42,76.66Z"/><path class="cls-2" d="M556.42,77.09a6.88,6.88,0,0,0-1.15-.09,3.1,3.1,0,0,0-3.14,2v9.75h-2.35V75h2.29l0,1.58a3.67,3.67,0,0,1,3.27-1.84,2.34,2.34,0,0,1,1,.18Z"/><path class="cls-2" d="M566.55,88.72a5.28,5.28,0,0,1-.33-1.45A5.22,5.22,0,0,1,562.31,89,4.88,4.88,0,0,1,559,87.83a3.72,3.72,0,0,1-1.3-2.92,3.87,3.87,0,0,1,1.63-3.33,7.71,7.71,0,0,1,4.59-1.19h2.29V79.31a2.65,2.65,0,0,0-.74-2,3,3,0,0,0-2.17-.73,3.39,3.39,0,0,0-2.11.64,1.85,1.85,0,0,0-.85,1.53H558a3.22,3.22,0,0,1,.73-2,5,5,0,0,1,2-1.52,6.69,6.69,0,0,1,2.75-.56,5.45,5.45,0,0,1,3.72,1.19,4.29,4.29,0,0,1,1.39,3.27v6.32a7.59,7.59,0,0,0,.49,3v.2Zm-3.89-1.79a4.13,4.13,0,0,0,2.09-.57,3.53,3.53,0,0,0,1.44-1.48V82.06h-1.85q-4.3,0-4.31,2.52a2.13,2.13,0,0,0,.73,1.73A2.88,2.88,0,0,0,562.66,86.93Z"/><path class="cls-2" d="M575.4,71.66V75H578V76.8H575.4v8.53a2,2,0,0,0,.34,1.24,1.43,1.43,0,0,0,1.17.41,5.76,5.76,0,0,0,1.12-.15v1.89a6.81,6.81,0,0,1-1.8.26,2.93,2.93,0,0,1-2.38-1,4.08,4.08,0,0,1-.8-2.7V76.8h-2.5V75h2.5V71.66Z"/><path class="cls-2" d="M580.72,71.34a1.4,1.4,0,0,1,.35-1,1.32,1.32,0,0,1,1-.4,1.36,1.36,0,0,1,1,.4,1.4,1.4,0,0,1,.35,1,1.28,1.28,0,0,1-1.4,1.34,1.31,1.31,0,0,1-1-.39A1.36,1.36,0,0,1,580.72,71.34Zm2.54,17.38h-2.35V75h2.35Z"/><path class="cls-2" d="M589.24,75l.08,1.72a5,5,0,0,1,4.11-2c2.9,0,4.37,1.64,4.39,4.92v9.07h-2.35V79.63a3.12,3.12,0,0,0-.68-2.19,2.68,2.68,0,0,0-2.07-.71,3.45,3.45,0,0,0-2,.6,4.19,4.19,0,0,0-1.34,1.6v9.79H587V75Z"/><path class="cls-2" d="M600.81,81.74a8.09,8.09,0,0,1,1.48-5.11,5.12,5.12,0,0,1,7.86-.12l.11-1.52h2.15v13.4a5.59,5.59,0,0,1-1.58,4.2,5.82,5.82,0,0,1-4.25,1.54,7.13,7.13,0,0,1-2.91-.63,5.15,5.15,0,0,1-2.17-1.74l1.22-1.41a4.61,4.61,0,0,0,3.7,1.86,3.61,3.61,0,0,0,2.67-1,3.68,3.68,0,0,0,1-2.72V87.35A4.84,4.84,0,0,1,606.2,89a4.67,4.67,0,0,1-3.9-2A8.44,8.44,0,0,1,600.81,81.74Zm2.36.27a6.13,6.13,0,0,0,1,3.65A3.09,3.09,0,0,0,606.78,87a3.44,3.44,0,0,0,3.27-2V78.69a3.48,3.48,0,0,0-3.24-2,3.12,3.12,0,0,0-2.68,1.33A6.73,6.73,0,0,0,603.17,82Z"/><path class="cls-2" d="M621.77,81.73a8.07,8.07,0,0,1,.79-3.63,5.84,5.84,0,0,1,2.21-2.49,6,6,0,0,1,3.23-.88,5.82,5.82,0,0,1,4.54,1.94,7.51,7.51,0,0,1,1.73,5.17V82a8.26,8.26,0,0,1-.77,3.6,5.81,5.81,0,0,1-2.19,2.48A6.14,6.14,0,0,1,628,89a5.75,5.75,0,0,1-4.52-2,7.4,7.4,0,0,1-1.73-5.14Zm2.36.28a5.88,5.88,0,0,0,1.06,3.67,3.6,3.6,0,0,0,5.68,0,6.46,6.46,0,0,0,1-3.93,5.92,5.92,0,0,0-1.07-3.67,3.43,3.43,0,0,0-2.85-1.4,3.36,3.36,0,0,0-2.81,1.39A6.37,6.37,0,0,0,624.13,82Z"/><path class="cls-2" d="M639.44,75l.07,1.72a5,5,0,0,1,4.12-2q4.35,0,4.39,4.92v9.07h-2.35V79.63a3.12,3.12,0,0,0-.68-2.19,2.69,2.69,0,0,0-2.07-.71,3.43,3.43,0,0,0-2,.6,4.21,4.21,0,0,0-1.35,1.6v9.79h-2.34V75Z"/><path class="cls-2" d="M668.57,83.89h-7.74l-1.74,4.83h-2.51l7-18.48h2.14l7.07,18.48h-2.5Zm-7-2h6.29l-3.15-8.64Z"/><path class="cls-2" d="M683.3,87.36a5,5,0,0,1-4,1.62,4.27,4.27,0,0,1-3.34-1.28,5.51,5.51,0,0,1-1.16-3.78V75h2.35v8.87c0,2.08.84,3.12,2.54,3.12a3.53,3.53,0,0,0,3.58-2V75h2.34V88.72h-2.23Z"/><path class="cls-2" d="M688.58,81.74a8,8,0,0,1,1.5-5.08,5.09,5.09,0,0,1,7.74-.28V69.22h2.35v19.5H698l-.11-1.47A4.79,4.79,0,0,1,694,89a4.72,4.72,0,0,1-3.9-2,8.14,8.14,0,0,1-1.5-5.1Zm2.35.27a6.11,6.11,0,0,0,1,3.65A3.14,3.14,0,0,0,694.56,87a3.42,3.42,0,0,0,3.26-2V78.67a3.43,3.43,0,0,0-3.23-1.94,3.14,3.14,0,0,0-2.7,1.33A6.73,6.73,0,0,0,690.93,82Z"/><path class="cls-2" d="M703.83,71.34a1.35,1.35,0,0,1,.35-1,1.3,1.3,0,0,1,1-.4,1.33,1.33,0,0,1,1,.4,1.36,1.36,0,0,1,.36,1,1.29,1.29,0,0,1-1.4,1.34,1.3,1.3,0,0,1-1-.39A1.31,1.31,0,0,1,703.83,71.34Zm2.54,17.38H704V75h2.35Z"/><path class="cls-2" d="M721.75,82a8.21,8.21,0,0,1-1.44,5.06A4.64,4.64,0,0,1,716.42,89a4.8,4.8,0,0,1-4-1.84l-.12,1.58h-2.15V69.22h2.34V76.5a4.77,4.77,0,0,1,3.93-1.77,4.67,4.67,0,0,1,3.93,1.89,8.43,8.43,0,0,1,1.42,5.18Zm-2.35-.27a6.34,6.34,0,0,0-.92-3.71,3.08,3.08,0,0,0-2.67-1.3,3.44,3.44,0,0,0-3.34,2.15v5.94A3.55,3.55,0,0,0,715.84,87a3,3,0,0,0,2.62-1.3A6.76,6.76,0,0,0,719.4,81.74Z"/><path class="cls-2" d="M727.26,88.72h-2.35V69.22h2.35Z"/><path class="cls-2" d="M736.72,89a6,6,0,0,1-4.54-1.84,6.8,6.8,0,0,1-1.76-4.91V81.8a8.12,8.12,0,0,1,.79-3.65,6,6,0,0,1,2.18-2.51,5.44,5.44,0,0,1,3-.91,5.14,5.14,0,0,1,4.16,1.77,7.63,7.63,0,0,1,1.49,5v1h-9.31A4.9,4.9,0,0,0,734,85.81a3.75,3.75,0,0,0,2.89,1.25,4.1,4.1,0,0,0,2.11-.51,5.48,5.48,0,0,0,1.51-1.34l1.43,1.11A5.77,5.77,0,0,1,736.72,89Zm-.29-12.32a3.15,3.15,0,0,0-2.39,1,5,5,0,0,0-1.19,2.9h6.88v-.18a4.5,4.5,0,0,0-1-2.77A3,3,0,0,0,736.43,76.66Z"/><path class="cls-2" d="M751.25,71.34a1.39,1.39,0,0,1,.34-1,1.55,1.55,0,0,1,2.08,0,1.36,1.36,0,0,1,.36,1,1.32,1.32,0,0,1-.36,1,1.58,1.58,0,0,1-2.08,0A1.35,1.35,0,0,1,751.25,71.34Zm2.53,17.38h-2.34V75h2.34Z"/><path class="cls-2" d="M759.76,75l.08,1.72a5,5,0,0,1,4.11-2c2.91,0,4.37,1.64,4.4,4.92v9.07H766V79.63a3.17,3.17,0,0,0-.68-2.19,2.72,2.72,0,0,0-2.08-.71,3.4,3.4,0,0,0-2,.6,4.13,4.13,0,0,0-1.35,1.6v9.79h-2.35V75Z"/><path class="cls-2" d="M788.9,83.89h-7.74l-1.74,4.83H776.9L784,70.24h2.13l7.08,18.48h-2.51Zm-7-2h6.29L785,73.25Z"/><path class="cls-2" d="M802.09,88.72V70.24h5.22a8.37,8.37,0,0,1,4.26,1.06,7.32,7.32,0,0,1,2.87,3,9.93,9.93,0,0,1,1,4.52V80a9.94,9.94,0,0,1-1,4.58,7.06,7.06,0,0,1-2.88,3,8.78,8.78,0,0,1-4.36,1.08Zm2.44-16.49v14.5h2.56A5.62,5.62,0,0,0,811.48,85a7.29,7.29,0,0,0,1.57-5V78.9a7.41,7.41,0,0,0-1.48-4.9,5.3,5.3,0,0,0-4.2-1.77Z"/><path class="cls-2" d="M827.25,88.72a5.28,5.28,0,0,1-.33-1.45A5.22,5.22,0,0,1,823,89a4.88,4.88,0,0,1-3.33-1.15,3.72,3.72,0,0,1-1.3-2.92A3.87,3.87,0,0,1,820,81.58a7.71,7.71,0,0,1,4.59-1.19h2.28V79.31a2.64,2.64,0,0,0-.73-2,3,3,0,0,0-2.17-.73,3.39,3.39,0,0,0-2.11.64,1.85,1.85,0,0,0-.85,1.53h-2.36a3.22,3.22,0,0,1,.73-2,4.87,4.87,0,0,1,2-1.52,6.69,6.69,0,0,1,2.75-.56,5.45,5.45,0,0,1,3.72,1.19,4.29,4.29,0,0,1,1.39,3.27v6.32a7.79,7.79,0,0,0,.48,3v.2Zm-3.9-1.79a4.14,4.14,0,0,0,2.1-.57,3.44,3.44,0,0,0,1.43-1.48V82.06H825q-4.31,0-4.31,2.52a2.13,2.13,0,0,0,.73,1.73A2.85,2.85,0,0,0,823.35,86.93Z"/><path class="cls-2" d="M837.22,85.28,840.42,75h2.51l-5.52,15.85c-.86,2.29-2.21,3.43-4.08,3.43l-.44,0-.88-.16V92.16l.64,0a3.16,3.16,0,0,0,1.86-.48,3.53,3.53,0,0,0,1.1-1.76l.52-1.4L831.23,75h2.56Z"/><path class="cls-2" d="M845.38,75.44l-1.33-.91a6.2,6.2,0,0,0,1.22-3.48V69.22h2.32v1.65a6,6,0,0,1-.63,2.54A5.81,5.81,0,0,1,845.38,75.44Z"/><path class="cls-2" d="M857,85.08a1.71,1.71,0,0,0-.71-1.48,7,7,0,0,0-2.5-.91,11.76,11.76,0,0,1-2.83-.91,4,4,0,0,1-1.55-1.27,3,3,0,0,1-.51-1.75,3.57,3.57,0,0,1,1.43-2.86A5.59,5.59,0,0,1,854,74.73a5.71,5.71,0,0,1,3.79,1.21A3.82,3.82,0,0,1,859.21,79h-2.37a2.13,2.13,0,0,0-.81-1.66,3.07,3.07,0,0,0-2.07-.7,3.21,3.21,0,0,0-2,.56,1.74,1.74,0,0,0-.73,1.46,1.42,1.42,0,0,0,.68,1.28,8,8,0,0,0,2.43.83,12.32,12.32,0,0,1,2.85.94A4.12,4.12,0,0,1,858.81,83a3.24,3.24,0,0,1,.52,1.87,3.54,3.54,0,0,1-1.47,3A6.18,6.18,0,0,1,854,89a6.92,6.92,0,0,1-2.92-.59,4.74,4.74,0,0,1-2-1.63,3.91,3.91,0,0,1-.71-2.27h2.34a2.46,2.46,0,0,0,1,1.88,3.67,3.67,0,0,0,2.33.69,3.79,3.79,0,0,0,2.14-.54A1.65,1.65,0,0,0,857,85.08Z"/><path class="cls-2" d="M873.18,82.9l.36,2.43.52-2.19,3.66-12.9h2l3.57,12.9.51,2.23.39-2.49,2.87-12.64h2.45l-4.48,18.48h-2.22l-3.81-13.47-.29-1.41-.3,1.41-3.94,13.47h-2.23l-4.46-18.48h2.43Z"/><path class="cls-2" d="M890.88,81.73a8.2,8.2,0,0,1,.79-3.63,5.9,5.9,0,0,1,2.21-2.49,6,6,0,0,1,3.23-.88,5.8,5.8,0,0,1,4.54,1.94,7.47,7.47,0,0,1,1.74,5.17V82a8.26,8.26,0,0,1-.77,3.6,5.83,5.83,0,0,1-2.2,2.48,6.08,6.08,0,0,1-3.28.89,5.79,5.79,0,0,1-4.53-2,7.45,7.45,0,0,1-1.73-5.14Zm2.36.28a5.94,5.94,0,0,0,1.06,3.67,3.6,3.6,0,0,0,5.68,0A6.4,6.4,0,0,0,901,81.73,5.86,5.86,0,0,0,900,78.06a3.41,3.41,0,0,0-2.85-1.4,3.36,3.36,0,0,0-2.8,1.39A6.37,6.37,0,0,0,893.24,82Z"/><path class="cls-2" d="M913,77.09a6.88,6.88,0,0,0-1.15-.09,3.1,3.1,0,0,0-3.14,2v9.75h-2.35V75h2.29l0,1.58a3.68,3.68,0,0,1,3.28-1.84,2.37,2.37,0,0,1,1,.18Z"/><path class="cls-2" d="M919,82.36l-1.47,1.54v4.82h-2.35V69.22h2.35V81l1.26-1.51L923,75h2.85l-5.34,5.73,6,8h-2.75Z"/></svg>