<svg id="Layer_1" data-name="Layer 1" xmlns="http://www.w3.org/2000/svg" viewBox="0 0 1920 1857"><defs><style>.cls-1,.cls-2,.cls-3,.cls-4{fill:none;}.cls-2{stroke:#707070;}.cls-2,.cls-3{stroke-width:5px;}.cls-3{stroke:#727272;}.cls-4{stroke:#14b0bf;stroke-width:8px;}</style></defs><title>herobg2</title><g id="herobg"><g id="Circle"><g id="Ellipse_20" data-name="Ellipse 20"><circle class="cls-1" cx="180.02" cy="246.46" r="69.5"/><circle class="cls-2" cx="180.02" cy="246.46" r="67"/></g></g><g id="Triangles"><path id="Path_100" data-name="Path 100" class="cls-2" d="M718.52,241.33v92.5h90Z"/></g><g id="Triangles-2"><path id="Path_101" data-name="Path 101" class="cls-2" d="M1195.52,102.33v92.5h90Z"/></g><g id="Swiggly"><path id="Path_102" data-name="Path 102" class="cls-3" d="M84.32,179.8,57.61,206.51l26.71,26.71L57.61,259.93l26.71,26.71L57.61,313.35"/></g><g id="Circle-2"><g id="Ellipse_30" data-name="Ellipse 30"><circle class="cls-1" cx="321.02" cy="475.46" r="69.5"/><circle class="cls-2" cx="321.02" cy="475.46" r="67"/></g></g><g id="Swiggly-2"><path id="Path_105" data-name="Path 105" class="cls-3" d="M391.74,381.93,365,355.22l-26.71,26.71-26.71-26.71L284.9,381.93l-26.71-26.71"/></g><g id="Triangles-3"><path id="Path_103" data-name="Path 103" class="cls-2" d="M516.77,184.58h-92.5v90Z"/><path id="Path_104" data-name="Path 104" class="cls-2" d="M436.52,285h67.25V219.58Z"/><path id="Path_107" data-name="Path 107" class="cls-2" d="M436.52,285h67.25V219.58Z"/><path id="Path_108" data-name="Path 108" class="cls-2" d="M436.52,285h67.25V219.58Z"/></g><g id="Triangles-4"><path id="Path_106" data-name="Path 106" class="cls-2" d="M224.75,525.79H132.27v89.79Z"/><path id="Path_109" data-name="Path 109" class="cls-2" d="M144.52,626h67.25V560.58Z"/></g><g id="Circle-3"><g id="Ellipse_31" data-name="Ellipse 31"><circle class="cls-2" cx="388.02" cy="778.46" r="67"/></g></g><g id="Swiggly-3"><path id="Path_110" data-name="Path 110" class="cls-3" d="M265.74,879.93,239,853.22l-26.71,26.71-26.71-26.71L158.9,879.93l-26.71-26.71"/></g><g id="Triangles-5"><path id="Path_111" data-name="Path 111" class="cls-2" d="M664.52,813.83v-92.5h-90Z"/></g><g id="Triangles-6"><path id="Path_112" data-name="Path 112" class="cls-2" d="M566.52,444.33v92.5h90Z"/></g><g id="Ellipse_32" data-name="Ellipse 32"><circle class="cls-1" cx="823.02" cy="491.46" r="69.5"/><circle class="cls-2" cx="810.02" cy="485.46" r="67"/></g><g id="Swiggly-4"><path id="Path_113" data-name="Path 113" class="cls-3" d="M766.74,640.93,740,614.22l-26.71,26.71-26.71-26.71L659.9,640.93l-26.71-26.71"/></g><g id="Swiggly-5"><path id="Path_114" data-name="Path 114" class="cls-3" d="M891.61,885.35l26.71-26.71-26.71-26.71,26.71-26.71-26.71-26.71,26.71-26.71"/></g><g id="Swiggly-6"><path id="Path_115" data-name="Path 115" class="cls-3" d="M1823.75,354.93,1797,328.22l-26.71,26.71-26.71-26.71-26.71,26.71-26.71-26.71"/></g><path id="Path_116" data-name="Path 116" class="cls-3" d="M1419.32,79.8l-26.71,26.71,26.71,26.71-26.71,26.71,26.71,26.71-26.71,26.71"/><g id="Swiggly-7"><path id="Path_117" data-name="Path 117" class="cls-3" d="M1531.75,462.93,1505,436.22l-26.71,26.71-26.71-26.71-26.71,26.71-26.71-26.71"/></g><g id="Swiggly-8"><path id="Path_118" data-name="Path 118" class="cls-3" d="M1314.32,722.8l-26.71,26.71,26.71,26.71-26.71,26.71,26.71,26.71-26.71,26.71"/></g><g id="Circle-4"><g id="Ellipse_33" data-name="Ellipse 33"><circle class="cls-1" cx="1511.02" cy="142.46" r="69.5"/><circle class="cls-2" cx="1511.02" cy="142.46" r="67"/></g></g><g id="Triangles-7"><path id="Path_52" data-name="Path 52" class="cls-2" d="M1058.52,605.83v-92.5h-90Z"/><path id="Path_119" data-name="Path 119" class="cls-1" d="M1060.52,604.83v-92.5h-90Z"/><path id="Path_120" data-name="Path 120" class="cls-2" d="M980.43,551.67v67.25h65.43Z"/></g><g id="Ellipse_34" data-name="Ellipse 34"><circle class="cls-1" cx="1284.02" cy="556.46" r="69.5"/><circle class="cls-2" cx="1284.02" cy="556.46" r="67"/></g><g id="Triangles-8"><path id="Path_121" data-name="Path 121" class="cls-2" d="M1089,787h-67.25v65.43Z"/><path id="Path_122" data-name="Path 122" class="cls-2" d="M1032.82,865.13h92.5v-90Z"/></g><path id="Path_123" data-name="Path 123" class="cls-2" d="M1567.77,552.58h-92.5v90Z"/><path id="Path_124" data-name="Path 124" class="cls-2" d="M1487.56,656.05l67.25-.08-.08-65.43Z"/><g id="Circle-5"><g id="Ellipse_35" data-name="Ellipse 35"><circle class="cls-1" cx="1751.02" cy="467.46" r="69.5"/><circle class="cls-2" cx="1751.02" cy="447.46" r="67"/></g></g><g id="Ellipse_36" data-name="Ellipse 36"><circle class="cls-1" cx="1734.02" cy="764.46" r="69.5"/><circle class="cls-2" cx="1727.02" cy="746.46" r="67"/></g><g id="Triangles-9"><path id="Path_125" data-name="Path 125" class="cls-2" d="M1169.77,324.58h-92.5v90Z"/></g><g id="Triangles-10"><path id="Path_126" data-name="Path 126" class="cls-2" d="M1851.77,114.58h-92.5v90Z"/><path id="Path_127" data-name="Path 127" class="cls-2" d="M1772.52,211h67.25V145.58Z"/></g><g id="Swiggly-9"><path id="Path_197" data-name="Path 197" class="cls-3" d="M1603.75,847.93,1577,821.22l-26.71,26.71-26.71-26.71-26.71,26.71-26.71-26.71"/></g><g id="Triangles-11"><path id="Path_100-2" data-name="Path 100-2" class="cls-2" d="M1678.49,1070.36l.06,92.5,90,0Z"/></g><g id="Swiggly-10"><path id="Path_49-2" data-name="Path 49-2" class="cls-4" d="M1046.32,1008.8l-26.71,26.71,26.71,26.71-26.71,26.71,26.71,26.71-26.71,26.71"/><path id="Path_102-2" data-name="Path 102-2" class="cls-3" d="M1046.32,1008.8l-26.71,26.71,26.71,26.71-26.71,26.71,26.71,26.71-26.71,26.71"/></g><g id="Circle-7"><g id="Ellipse_30-2" data-name="Ellipse 30-2"><circle class="cls-1" cx="1283.02" cy="1304.46" r="69.5"/><circle class="cls-2" cx="1283.02" cy="1304.46" r="67"/></g></g><g id="Swiggly-11"><path id="Path_105-2" data-name="Path 105-2" class="cls-3" d="M1351.74,1210.93,1325,1184.22l-26.71,26.71-26.71-26.71-26.71,26.71-26.71-26.71"/></g><g id="Triangles-12"><path id="Path_103-2" data-name="Path 103-2" class="cls-2" d="M1476.85,1013.65l-92.5-.13-.13,90Z"/><path id="Path_104-2" data-name="Path 104-2" class="cls-2" d="M1396.45,1114l67.25.09.09-65.43Z"/><path id="Path_107-2" data-name="Path 107-2" class="cls-2" d="M1396.45,1114l67.25.09.09-65.43Z"/><path id="Path_108-2" data-name="Path 108-2" class="cls-2" d="M1396.45,1114l67.25.09.09-65.43Z"/></g><g id="Triangles-13"><path id="Path_106-2" data-name="Path 106-2" class="cls-2" d="M1184.77,1354.58h-92.5v90Z"/><path id="Path_109-2" data-name="Path 109-2" class="cls-2" d="M1104.52,1455h67.25v-65.43Z"/></g><g id="Circle-8"><g id="Ellipse_31-2" data-name="Ellipse 31-2"><circle class="cls-1" cx="1345.02" cy="1616.46" r="69.5"/><circle class="cls-2" cx="1345.02" cy="1616.46" r="67"/></g></g><g id="Swiggly-12"><path id="Path_110-2" data-name="Path 110-2" class="cls-3" d="M1225.74,1708.93,1199,1682.22l-26.71,26.71-26.71-26.71-26.71,26.71-26.71-26.71"/></g><g id="Triangles-14"><path id="Path_111-2" data-name="Path 111-2" class="cls-2" d="M1624.52,1642.83v-92.5h-90Z"/></g><g id="Triangles-15"><path id="Path_112-2" data-name="Path 112-2" class="cls-2" d="M1516.52,1273.33v92.5h90Z"/></g><g id="Ellipse_52" data-name="Ellipse 52"><circle class="cls-1" cx="1747.02" cy="1320.46" r="69.5"/><circle class="cls-2" cx="1747.02" cy="1320.46" r="67"/></g><g id="Swiggly-13"><path id="Path_113-2" data-name="Path 113-2" class="cls-3" d="M1726.74,1469.93,1700,1443.22l-26.71,26.71-26.71-26.71-26.71,26.71-26.71-26.71"/></g><g id="Swiggly-14"><path id="Path_114-2" data-name="Path 114-2" class="cls-3" d="M1851.61,1714.35l26.71-26.71-26.71-26.71,26.71-26.71-26.71-26.71,26.71-26.71"/></g><g id="Triangles-16"><path id="Path_101-2" data-name="Path 101-2" class="cls-2" d="M263.52,1020.33v92.5h90Z"/></g><g id="Swiggly-15"><path id="Path_115-2" data-name="Path 115-2" class="cls-3" d="M891.75,1272.93,865,1246.22l-26.71,26.71-26.71-26.71-26.71,26.71-26.71-26.71"/></g><path id="Path_203" data-name="Path 203" class="cls-3" d="M487.32,997.8l-26.71,26.71,26.71,26.71-26.71,26.71,26.71,26.71-26.71,26.71"/><g id="Swiggly-16"><path id="Path_117-2" data-name="Path 117-2" class="cls-3" d="M599.75,1390.93,573,1364.22l-26.71,26.71-26.71-26.71-26.71,26.71-26.71-26.71"/></g><g id="Swiggly-17"><path id="Path_118-2" data-name="Path 118-2" class="cls-3" d="M382.32,1640.8l-26.71,26.71,26.71,26.71-26.71,26.71,26.71,26.71-26.71,26.71"/></g><g id="Circle-9"><g id="Ellipse_33-2" data-name="Ellipse 33-2"><circle class="cls-1" cx="579.02" cy="1063.46" r="69.5"/><circle class="cls-2" cx="579.02" cy="1063.46" r="67"/></g></g><g id="Triangles-17"><path id="Path_52-2" data-name="Path 52-2" class="cls-2" d="M133.52,1523.83v-92.5h-90Z"/><path id="Path_119-2" data-name="Path 119-2" class="cls-1" d="M128.52,1522.83v-92.5h-90Z"/><path id="Path_120-2" data-name="Path 120-2" class="cls-2" d="M47.43,1469.67v67.12h65.32Z"/></g><g id="Ellipse_54" data-name="Ellipse 54"><circle class="cls-1" cx="351.02" cy="1476.46" r="69.5"/><circle class="cls-2" cx="351.02" cy="1476.46" r="67"/></g><g id="Triangles-18"><path id="Path_121-2" data-name="Path 121-2" class="cls-2" d="M156.75,1704.79h-67v65.68Z"/><path id="Path_122-2" data-name="Path 122-2" class="cls-2" d="M100.82,1784.13h92.5v-90Z"/></g><path id="Path_204" data-name="Path 204" class="cls-2" d="M635.77,1470.58h-92.5v90Z"/><path id="Path_205" data-name="Path 205" class="cls-2" d="M555.52,1567.79h67.23v-65.21Z"/><g id="Circle-10"><g id="Ellipse_35-2" data-name="Ellipse 35-2"><circle class="cls-1" cx="819.02" cy="1365.46" r="69.5"/><circle class="cls-2" cx="819.02" cy="1365.46" r="67"/></g></g><g id="Ellipse_55" data-name="Ellipse 55"><circle class="cls-2" cx="792.02" cy="1662.46" r="67"/></g><g id="Triangles-19"><path id="Path_125-2" data-name="Path 125-2" class="cls-2" d="M236.77,1242.58h-92.5v90Z"/></g><g id="Triangles-20"><path id="Path_126-2" data-name="Path 126-2" class="cls-2" d="M921.77,1032.58h-92.5v90Z"/><path id="Path_127-2" data-name="Path 127-2" class="cls-2" d="M840.52,1129h67.25v-65.43Z"/></g><g id="Swiggly-18"><path id="Path_197-2" data-name="Path 197-2" class="cls-3" d="M671.75,1765.93,645,1739.22l-26.71,26.71-26.71-26.71-26.71,26.71-26.71-26.71"/></g></g></svg>