<svg id="Layer_1" data-name="Layer 1" xmlns="http://www.w3.org/2000/svg" viewBox="0 0 1920 1807"><defs><style>.cls-1,.cls-10,.cls-11,.cls-12,.cls-13,.cls-4,.cls-8{fill:none;}.cls-1{stroke:#67ffd6;}.cls-1,.cls-10,.cls-11,.cls-12,.cls-4,.cls-8{stroke-width:8px;}.cls-2{fill:#14b0bf;}.cls-3{fill:#fd5f80;}.cls-4{stroke:#14b0bf;}.cls-5{fill:#fff;}.cls-6{fill:#fe4b4b;}.cls-7{fill:#67ffd6;}.cls-8{stroke:#fff;}.cls-9{fill:#ffe561;}.cls-10{stroke:#fe4b4b;}.cls-11{stroke:#fd5f80;}.cls-12{stroke:#ffe561;}</style></defs><title>herobg1</title><g id="herobg"><path id="Path_8" data-name="Path 8" class="cls-1" d="M83.57,159,56.86,185.71l26.71,26.72L56.86,239.14l26.71,26.7L56.86,292.56"/><circle id="Ellipse_7" data-name="Ellipse 7" class="cls-2" cx="1281.27" cy="537.66" r="69.5"/><path id="Path_33" data-name="Path 33" class="cls-2" d="M1565,532.79h-92.5v90Z"/><path id="Path_34" data-name="Path 34" class="cls-3" d="M1484.77,632.22H1552V566.79Z"/><path id="Path_38" data-name="Path 38" class="cls-4" d="M1416.57,58l-26.71,26.71,26.71,26.72-26.71,26.71,26.71,26.7-26.71,26.72"/><g id="Circle_lines-2" data-name="Circle lines-2"><circle id="Ellipse_4-2" data-name="Ellipse 4-2" class="cls-5" cx="1724.27" cy="725.66" r="69.5"/></g><g id="Circle"><circle id="Ellipse_2" data-name="Ellipse 2" class="cls-3" cx="175.27" cy="225.66" r="69.5"/></g><g id="Circle_lines-3" data-name="Circle lines-3"><circle id="Ellipse_4-3" data-name="Ellipse 4-3" class="cls-3" cx="807.27" cy="464.66" r="69.5"/></g><g id="Triangles"><path id="Path_20" data-name="Path 20" class="cls-6" d="M716.77,217.54V310h90Z"/><path id="Path_58" data-name="Path 58" class="cls-3" d="M716.77,217.54V310h90Z"/></g><g id="Triangles-2"><path id="Path_1" data-name="Path 1" class="cls-3" d="M1194.77,78.54V171h90Z"/></g><g id="Swiggly"><path id="Path_49" data-name="Path 49" class="cls-4" d="M81.57,159,54.86,185.71l26.71,26.72L54.86,239.14l26.71,26.7L54.86,292.56"/></g><g id="Circle-2"><circle id="Ellipse_5" data-name="Ellipse 5" class="cls-7" cx="322.27" cy="454.66" r="69.5"/><circle id="Ellipse_21" data-name="Ellipse 21" class="cls-2" cx="322.27" cy="454.66" r="69.5"/></g><g id="Swiggly-2"><path id="Path_55" data-name="Path 55" class="cls-8" d="M386,363.14l-26.71-26.71-26.71,26.71-26.71-26.71-26.71,26.71-26.71-26.71"/></g><g id="Triangles-3"><path id="Path_9" data-name="Path 9" class="cls-6" d="M433.77,264.22H501V198.79Z"/><path id="Path_12" data-name="Path 12" class="cls-9" d="M514,163.79h-92.5v90Z"/><path id="Path_50" data-name="Path 50" class="cls-3" d="M433.77,264.22H501V198.79Z"/><path id="Path_53" data-name="Path 53" class="cls-5" d="M514,163.79h-92.5v90Z"/></g><g id="Triangles-4"><path id="Path_2" data-name="Path 2" class="cls-7" d="M221,505.79h-92.5v90Z"/><path id="Path_4" data-name="Path 4" class="cls-6" d="M140.77,605.22H208V539.79Z"/><path id="Path_45" data-name="Path 45" class="cls-2" d="M221,505.79h-92.5v90Z"/><path id="Path_46" data-name="Path 46" class="cls-3" d="M140.77,605.22H208V539.79Z"/></g><g id="Circle-3"><g id="Circle_lines-5" data-name="Circle lines-5"><circle id="Ellipse_4-5" data-name="Ellipse 4-5" class="cls-5" cx="386.27" cy="756.66" r="69.5"/></g></g><g id="Swiggly-3"><path id="Path_13" data-name="Path 13" class="cls-10" d="M263,855.14l-26.71-26.71-26.71,26.71-26.71-26.71-26.71,26.71-26.71-26.71"/><path id="Path_54" data-name="Path 54" class="cls-11" d="M263,855.14l-26.71-26.71-26.71,26.71-26.71-26.71-26.71,26.71-26.71-26.71"/></g><g id="Triangles-5"><path id="Path_7" data-name="Path 7" class="cls-9" d="M661.77,794v-92.5h-90Z"/><path id="Path_48" data-name="Path 48" class="cls-5" d="M661.77,794v-92.5h-90Z"/></g><g id="Triangles-6"><path id="Path_19" data-name="Path 19" class="cls-7" d="M558.77,419.54V512h90Z"/><path id="Path_57" data-name="Path 57" class="cls-2" d="M558.77,419.54V512h90Z"/></g><g id="Swiggly-4"><path id="Path_18" data-name="Path 18" class="cls-12" d="M762,622.14l-26.71-26.71-26.71,26.71-26.71-26.71-26.71,26.71-26.71-26.71"/><path id="Path_56" data-name="Path 56" class="cls-8" d="M762,622.14l-26.71-26.71-26.71,26.71-26.71-26.71-26.71,26.71-26.71-26.71"/></g><g id="Swiggly-5"><path id="Path_5" data-name="Path 5" class="cls-10" d="M918.57,731l-26.71,26.71,26.71,26.72-26.71,26.71,26.71,26.7-26.71,26.72"/><path id="Path_47" data-name="Path 47" class="cls-11" d="M918.57,731l-26.71,26.71,26.71,26.72-26.71,26.71,26.71,26.7-26.71,26.72"/></g><g id="Swiggly-6"><path id="Path_44" data-name="Path 44" class="cls-8" d="M1818,334.14l-26.71-26.71-26.71,26.71-26.71-26.71-26.71,26.71-26.71-26.71"/></g><g id="Swiggly-7"><path id="Path_15" data-name="Path 15" class="cls-4" d="M1529,444.14l-26.71-26.71-26.71,26.71-26.71-26.71-26.71,26.71-26.71-26.71"/></g><g id="Swiggly-8"><path id="Path_21" data-name="Path 21" class="cls-4" d="M1284.86,835.56l26.71-26.71-26.71-26.71,26.71-26.71-26.71-26.71L1311.57,702"/></g><g id="Circle-4"><circle id="Ellipse_18" data-name="Ellipse 18" class="cls-3" cx="1508.27" cy="124.66" r="69.5"/></g><g id="Triangles-7"><path id="Path_10" data-name="Path 10" class="cls-6" d="M979.68,527.88v67.25h65.43Z"/><path id="Path_11" data-name="Path 11" class="cls-2" d="M1057.77,584v-92.5h-90Z"/><path id="Path_51" data-name="Path 51" class="cls-3" d="M979.68,527.88v67.25h65.43Z"/></g><g id="Triangles-8"><path id="Path_16" data-name="Path 16" class="cls-2" d="M1086.23,764.24H1019v65.44Z"/><path id="Path_17" data-name="Path 17" class="cls-5" d="M1030.07,842.34h92.5v-90Z"/></g><g id="Circle-5"><circle id="Ellipse_19" data-name="Ellipse 19" class="cls-2" cx="1748.27" cy="425.66" r="69.5"/></g><g id="Ellipse_36" data-name="Ellipse 36"><circle class="cls-13" cx="1731.27" cy="743.66" r="69.5"/></g><g id="Triangles-9"><path id="Path_6" data-name="Path 6" class="cls-5" d="M1169,304.79h-92.5v90Z"/></g><g id="Triangles-10"><path id="Path_39" data-name="Path 39" class="cls-3" d="M1766.77,191.22H1834V125.79Z"/><path id="Path_42" data-name="Path 42" class="cls-5" d="M1847,90.79h-92.5v90Z"/></g><g id="Swiggly-9"><path id="Path_43" data-name="Path 43" class="cls-11" d="M1601,824.14l-26.71-26.71-26.71,26.71-26.71-26.71-26.71,26.71-26.71-26.71"/></g><path id="Path_199" data-name="Path 199" class="cls-1" d="M1043.57,988l-26.71,26.71,26.71,26.72-26.71,26.71,26.71,26.7-26.71,26.72"/><g id="Circle-6"><circle id="Ellipse_2-2" data-name="Ellipse 2-2" class="cls-3" cx="1135.27" cy="1054.66" r="69.5"/></g><g id="Circle_lines-7" data-name="Circle lines-7"><circle id="Ellipse_4-7" data-name="Ellipse 4-7" class="cls-3" cx="1744.27" cy="1294.66" r="69.5"/></g><g id="Triangles-11"><path id="Path_20-2" data-name="Path 20-2" class="cls-6" d="M1676.74,1046.57l.06,92.5,90-.06Z"/><path id="Path_58-2" data-name="Path 58-2" class="cls-3" d="M1676.74,1046.57l.06,92.5,90-.06Z"/></g><g id="Swiggly-10"><path id="Path_49-2" data-name="Path 49-2" class="cls-4" d="M1043.57,988l-26.71,26.71,26.71,26.72-26.71,26.71,26.71,26.7-26.71,26.72"/></g><g id="Circle-7"><circle id="Ellipse_5-2" data-name="Ellipse 5-2" class="cls-7" cx="1282.27" cy="1283.66" r="69.5"/><circle id="Ellipse_21-2" data-name="Ellipse 21-2" class="cls-2" cx="1282.27" cy="1283.66" r="69.5"/></g><g id="Swiggly-11"><path id="Path_55-2" data-name="Path 55-2" class="cls-8" d="M1346,1192.14l-26.71-26.71-26.71,26.71-26.71-26.71-26.71,26.71-26.71-26.71"/></g><g id="Triangles-12"><path id="Path_9-2" data-name="Path 9-2" class="cls-6" d="M1393.69,1093.17l67.25.1.1-65.43Z"/><path id="Path_12-2" data-name="Path 12-2" class="cls-9" d="M1474.08,992.85l-92.5-.13-.12,90Z"/><path id="Path_50-2" data-name="Path 50-2" class="cls-3" d="M1393.69,1093.17l67.25.1.1-65.43Z"/><path id="Path_53-2" data-name="Path 53-2" class="cls-5" d="M1474.08,992.85l-92.5-.13-.12,90Z"/></g><g id="Triangles-13"><path id="Path_2-2" data-name="Path 2-2" class="cls-7" d="M1181,1334.79h-92.5v90Z"/><path id="Path_4-2" data-name="Path 4-2" class="cls-6" d="M1100.77,1434.22H1168v-65.43Z"/><path id="Path_45-2" data-name="Path 45-2" class="cls-2" d="M1181,1334.79h-92.5v90Z"/><path id="Path_46-2" data-name="Path 46-2" class="cls-3" d="M1100.77,1434.22H1168v-65.43Z"/></g><g id="Circle-8"><g id="Circle_lines-9" data-name="Circle lines-9"><circle id="Ellipse_4-9" data-name="Ellipse 4-9" class="cls-5" cx="1344.27" cy="1598.66" r="69.5"/></g></g><g id="Swiggly-12"><path id="Path_13-2" data-name="Path 13-2" class="cls-10" d="M1223,1684.14l-26.71-26.71-26.71,26.71-26.71-26.71-26.71,26.71-26.71-26.71"/><path id="Path_54-2" data-name="Path 54-2" class="cls-11" d="M1223,1684.14l-26.71-26.71-26.71,26.71-26.71-26.71-26.71,26.71-26.71-26.71"/></g><g id="Triangles-14"><path id="Path_48-2" data-name="Path 48-2" class="cls-5" d="M1621.77,1623v-92.5h-90Z"/></g><g id="Triangles-15"><path id="Path_19-2" data-name="Path 19-2" class="cls-7" d="M1518.77,1248.54V1341h90Z"/><path id="Path_57-2" data-name="Path 57-2" class="cls-2" d="M1518.77,1248.54V1341h90Z"/></g><g id="Ellipse_52" data-name="Ellipse 52"><circle class="cls-13" cx="1744.27" cy="1299.66" r="69.5"/></g><g id="Swiggly-13"><path id="Path_18-2" data-name="Path 18-2" class="cls-12" d="M1722,1451.14l-26.71-26.71-26.71,26.71-26.71-26.71-26.71,26.71-26.71-26.71"/><path id="Path_56-2" data-name="Path 56-2" class="cls-8" d="M1722,1451.14l-26.71-26.71-26.71,26.71-26.71-26.71-26.71,26.71-26.71-26.71"/></g><g id="Swiggly-14"><path id="Path_5-2" data-name="Path 5-2" class="cls-10" d="M1878.57,1560l-26.71,26.71,26.71,26.72-26.71,26.71,26.71,26.7-26.71,26.72"/><path id="Path_47-2" data-name="Path 47-2" class="cls-11" d="M1878.57,1560l-26.71,26.71,26.71,26.72-26.71,26.71,26.71,26.7-26.71,26.72"/></g><circle id="Ellipse_53" data-name="Ellipse 53" class="cls-2" cx="349.27" cy="1455.66" r="69.5"/><path id="Path_200" data-name="Path 200" class="cls-2" d="M633.09,1450.86l-92.5-.15-.14,90Z"/><path id="Path_201" data-name="Path 201" class="cls-3" d="M552.77,1550.22H620v-65.43Z"/><path id="Path_202" data-name="Path 202" class="cls-4" d="M484.57,976l-26.71,26.71,26.71,26.72-26.71,26.71,26.71,26.7-26.71,26.72"/><g id="Circle_lines-10" data-name="Circle lines-10"><circle id="Ellipse_4-10" data-name="Ellipse 4-10" class="cls-5" cx="792.27" cy="1643.66" r="69.5"/></g><g id="Triangles-16"><path id="Path_1-2" data-name="Path 1-2" class="cls-3" d="M262.77,996.54V1089h90Z"/></g><g id="Swiggly-15"><path id="Path_44-2" data-name="Path 44-2" class="cls-8" d="M886,1252.14l-26.71-26.71-26.71,26.71-26.71-26.71-26.71,26.71-26.71-26.71"/></g><g id="Swiggly-16"><path id="Path_15-2" data-name="Path 15-2" class="cls-4" d="M597,1362.14l-26.71-26.71-26.71,26.71-26.71-26.71-26.71,26.71-26.71-26.71"/></g><g id="Swiggly-17"><path id="Path_21-2" data-name="Path 21-2" class="cls-4" d="M352.86,1753.56l26.71-26.71-26.71-26.71,26.71-26.71-26.71-26.71L379.57,1620"/></g><g id="Circle-9"><circle id="Ellipse_18-2" data-name="Ellipse 18-2" class="cls-3" cx="576.27" cy="1042.66" r="69.5"/></g><g id="Triangles-17"><path id="Path_10-2" data-name="Path 10-2" class="cls-6" d="M47.68,1445.88v67.25h65.43Z"/><path id="Path_11-2" data-name="Path 11-2" class="cls-2" d="M125.77,1502v-92.5h-90Z"/><path id="Path_51-2" data-name="Path 51-2" class="cls-3" d="M47.68,1445.88v67.25h65.43Z"/></g><g id="Triangles-18"><path id="Path_16-2" data-name="Path 16-2" class="cls-2" d="M154.23,1682.24H87v65.44Z"/><path id="Path_17-2" data-name="Path 17-2" class="cls-5" d="M98.07,1760.34h92.5v-90Z"/></g><g id="Circle-10"><circle id="Ellipse_19-2" data-name="Ellipse 19-2" class="cls-2" cx="816.27" cy="1343.66" r="69.5"/></g><g id="Ellipse_55" data-name="Ellipse 55"><circle class="cls-13" cx="789.27" cy="1641.66" r="69.5"/></g><g id="Triangles-19"><path id="Path_6-2" data-name="Path 6-2" class="cls-5" d="M237,1222.79h-92.5v90Z"/></g><g id="Triangles-20"><path id="Path_39-2" data-name="Path 39-2" class="cls-3" d="M834.77,1109.22H902v-65.43Z"/><path id="Path_42-2" data-name="Path 42-2" class="cls-5" d="M915,1008.79h-92.5v90Z"/></g><g id="Swiggly-18"><path id="Path_43-2" data-name="Path 43-2" class="cls-11" d="M669,1742.14l-26.71-26.71-26.71,26.71-26.71-26.71-26.71,26.71-26.71-26.71"/></g></g></svg>