<svg xmlns="http://www.w3.org/2000/svg" width="1122" height="296.875" viewBox="0 0 1122 296.875"><defs><style>.a{fill:#14b0bf;}.b{fill:#fff;}.c{fill:#fd5f80;}</style></defs><g transform="translate(-72.13 -72.084)"><path class="a" d="M251.465,350.673A199.9,199.9,0,0,0,264.7,334.528a77.162,77.162,0,0,1-10.162-10.744,176.291,176.291,0,0,1-27.029,29.311V279.84c3.644,0,7.287.431,10.884.792v-4.365a77.852,77.852,0,0,1,.7-10.151c-3.772-.372-7.543-.629-11.384-.8V227.97h27.635a77.992,77.992,0,0,1,15.575-14.76h-43.21V175.8a196.959,196.959,0,0,0,51.684-9.01,173.957,173.957,0,0,1,7.939,37.459,76.458,76.458,0,0,1,14.19-4.132,188.939,188.939,0,0,0-8.37-38.216,198.427,198.427,0,0,0,36.388-19.23,133.657,133.657,0,0,1,24.317,65.909A77.41,77.41,0,0,1,368.988,219.6a148.429,148.429,0,1,0-76.2,130.6,77.432,77.432,0,0,1-17.1-7.788,135.033,135.033,0,0,1-24.224,8.265Zm68.784-219.448A178.685,178.685,0,0,1,287.958,148.2a192.069,192.069,0,0,0-38.507-58.331,133.471,133.471,0,0,1,70.8,41.359ZM227.613,89.447a174.609,174.609,0,0,1,46.644,63.721,183.213,183.213,0,0,1-46.562,8.079V89.54Zm-14.784,0v71.531c-7.112.9-35.888-4-46.562-8.009a174.48,174.48,0,0,1,46.621-63.418Zm-21.7.338a201.464,201.464,0,0,0-21.908,27.355,192.066,192.066,0,0,0-16.541,31.034A180.207,180.207,0,0,1,120.392,131.2a133.424,133.424,0,0,1,70.833-41.359ZM111.2,142.714a197.388,197.388,0,0,0,36.447,19.242,188.31,188.31,0,0,0-9.569,51.219h-51.5A133.657,133.657,0,0,1,111.289,142.7Zm0,155.728a133.739,133.739,0,0,1-24.608-70.565h51.44a188.229,188.229,0,0,0,9.068,51.451A196.526,196.526,0,0,0,111.3,298.384Zm9.2,11.419a181.59,181.59,0,0,1,31.79-16.7,193.326,193.326,0,0,0,37.017,57.6,132.9,132.9,0,0,1-68.819-40.87Zm32.442-81.891h60.124v37.39a195.178,195.178,0,0,0-51.777,9c-3.609-6.216-9.312-38.181-8.346-46.446Zm60.124,124.9a174.423,174.423,0,0,1-47.086-64.722c9.173-3.795,37.948-8.824,47.086-8.23Zm0-139.78H152.974c-1.327-5.727,4.493-37.983,8.439-46.329a195.842,195.842,0,0,0,51.544,8.94v37.39Z" transform="translate(0)"/><path class="b" d="M349.589,296.363c-3.492-3.492-3.667-5.89-1.49-10.314,11.384-23.165,9.929-45.992-5.82-66.538s-37.715-28.322-63.36-23.165c-32.594,6.623-53.547,39.4-47.377,73.056A61.974,61.974,0,0,0,302.1,318.771a230.852,230.852,0,0,0,26.459-8.148c6.984,7.136,14.958,15.249,22.967,23.281,9.033,9.138,16.9,8.346,23.98-2.328a7.508,7.508,0,0,0,1.036-3.015A7.753,7.753,0,0,0,375.5,323.9C362.626,309.6,353,299.681,349.589,296.363Zm-56.538,2.945A42.453,42.453,0,0,1,250.8,257.193a42,42,0,0,1,41.2-41.685,41.382,41.382,0,0,1,42.593,40.148v1.769a41.906,41.906,0,0,1-41.558,41.906Z" transform="translate(25.976 20.133)"/><path class="a" d="M999.882,358.733V336.418h17.845a4.458,4.458,0,0,0,4.47-4.458V318.573h17.845a4.458,4.458,0,0,0,4.458-4.458V296.258h17.857a4.447,4.447,0,0,0,4.458-4.458V95.458A4.458,4.458,0,0,0,1062.357,91H897.247a4.458,4.458,0,0,0-4.458,4.458v17.857H874.943a4.458,4.458,0,0,0-4.47,4.458v17.845H852.628a4.458,4.458,0,0,0-4.458,4.47V331.96a4.447,4.447,0,0,0,4.458,4.458h16.367l14.865,11.163v11.152h8.928V345.347a4.493,4.493,0,0,0-1.781-3.574l-16.064-12.048v-35.69l8.917-6.693v17.845h8.928V229.325a8.928,8.928,0,0,1,17.845,0v75.862h8.928V278.413a8.928,8.928,0,1,1,17.845,0v26.773h8.928V278.413a8.928,8.928,0,1,1,17.845,0v26.773h8.928V278.413a8.928,8.928,0,1,1,17.845,0v80.32Zm-98.165-258.8h156.17V287.342H1044.5V117.773a4.447,4.447,0,0,0-4.458-4.458H901.717Zm-22.315,22.3h156.182V309.645H1022.2V140.088a4.47,4.47,0,0,0-4.47-4.47H879.4Zm13.387,62.475a4.47,4.47,0,1,1,4.458,4.458,4.47,4.47,0,0,1-4.458-4.458Zm0,26.773v-8.928a4.47,4.47,0,0,1,8.928,0v8.928Zm18.311,0v-9a13.328,13.328,0,0,0-3.492-8.987,13.329,13.329,0,0,0,3.492-9,13.561,13.561,0,1,0-27.123,0,13.387,13.387,0,0,0,3.492,9,13.329,13.329,0,0,0-3.492,8.987v9h-9.033V162.007h45.2V211.48Zm70.938,49.088a17.7,17.7,0,0,0-13.387,6.158,17.624,17.624,0,0,0-26.773,0,17.461,17.461,0,0,0-22.315-3.678V229.29a17.625,17.625,0,0,0-2.479-8.917h6.984a4.47,4.47,0,0,0,4.47-4.47v-57.97a4.459,4.459,0,0,0-4.47-4.458H870.52a4.447,4.447,0,0,0-4.458,4.458v58a4.458,4.458,0,0,0,4.458,4.47h15.866a17.741,17.741,0,0,0-2.479,8.917v46.853l-16.145,12.048a4.493,4.493,0,0,0-1.781,3.574v35.7h-8.928V144.547h156.216V327.5H999.882V278.413a17.857,17.857,0,0,0-17.845-17.845Z" transform="translate(127.315 3.103)"/><rect class="c" width="58.005" height="8.928" transform="translate(1069.192 156.578)"/><rect class="c" width="58.005" height="8.928" transform="translate(1069.192 174.423)"/><rect class="c" width="58.005" height="8.928" transform="translate(1069.192 192.268)"/><rect class="c" width="58.005" height="8.928" transform="translate(1069.192 210.125)"/><rect class="c" width="58.005" height="8.928" transform="translate(1069.192 227.97)"/><rect class="c" width="58.005" height="8.928" transform="translate(1069.192 245.815)"/><path class="c" d="M519.961,165.942h9.557v5.18a71.31,71.31,0,0,0,71.31,71.31h0a49.47,49.47,0,0,1,49.461,49.449v23.235a11.21,11.21,0,0,0-14.76.547,11.478,11.478,0,0,0,0,15.575l17.764,17.752a10.907,10.907,0,0,0,7.915,3.283,10.383,10.383,0,0,0,7.66-3.283l17.752-17.752a10.931,10.931,0,0,0-14.481-16.122V291.893a71.3,71.3,0,0,0-71.322-71.31,49.447,49.447,0,0,1-49.437-49.449v-5.192h9.557A21.861,21.861,0,0,0,582.8,144.081v-27.32A21.861,21.861,0,0,0,560.936,94.9H519.961A21.861,21.861,0,0,0,498.1,116.761v27.32A21.861,21.861,0,0,0,519.961,165.942Zm0-49.181h40.975v27.32H519.961Z" transform="translate(69.883 3.743)"/><path class="b" d="M528.9,290.288a28.694,28.694,0,1,0-28.694-28.682h0A28.694,28.694,0,0,0,528.9,290.288Zm0-35.515a6.833,6.833,0,1,1-6.833,6.833,6.833,6.833,0,0,1,6.833-6.833Z" transform="translate(70.23 26.383)"/><path class="a" d="M572.725,278.1a10.907,10.907,0,0,0,7.927,3.283A10.675,10.675,0,0,0,588.3,278.1l4.912-4.912L598.4,278.1a10.675,10.675,0,0,0,7.648,3.283,11.431,11.431,0,0,0,7.927-3.283,10.919,10.919,0,0,0,0-15.3l-5.192-5.192,5.192-4.912A11.013,11.013,0,0,0,598.4,237.125l-5.192,5.192-4.912-5.192A11.013,11.013,0,0,0,572.725,252.7l5.192,4.912-5.192,5.192A10.919,10.919,0,0,0,572.725,278.1Z" transform="translate(81.597 26.547)"/><path class="b" d="M599.312,198.748a28.694,28.694,0,1,0-28.682-28.706h0a28.682,28.682,0,0,0,28.682,28.706Zm0-35.515a6.833,6.833,0,1,1-6.833,6.81,6.833,6.833,0,0,1,6.833-6.81Z" transform="translate(81.783 11.365)"/><path class="a" d="M684.389,145.585a11.466,11.466,0,0,0-15.563,0l-5.192,5.192-4.924-5.192a11.013,11.013,0,0,0-15.575,15.575l5.192,4.912-5.192,5.192a10.93,10.93,0,0,0,7.927,18.625,10.663,10.663,0,0,0,7.648-3.271l4.924-4.924,5.192,4.924a10.639,10.639,0,0,0,7.648,3.271,11.419,11.419,0,0,0,7.916-3.271,10.93,10.93,0,0,0,0-15.307l-5.18-5.192,5.18-4.912a11.478,11.478,0,0,0,0-15.622Z" transform="translate(93.148 11.529)"/></g></svg>